<svg xmlns="http://www.w3.org/2000/svg" xmlns:xlink="http://www.w3.org/1999/xlink" width="90" zoomAndPan="magnify" viewBox="0 0 67.5 67.499996" height="90" preserveAspectRatio="xMidYMid meet" version="1.0"><defs><filter x="0%" y="0%" width="100%" height="100%" id="b4747c4ab9"><feColorMatrix values="0 0 0 0 1 0 0 0 0 1 0 0 0 0 1 0 0 0 1 0" color-interpolation-filters="sRGB"/></filter><clipPath id="f06f379b61"><path d="M 0 0 L 67.003906 0 L 67.003906 67.003906 L 0 67.003906 Z M 0 0 " clip-rule="nonzero"/></clipPath><mask id="26970ff82f"><g filter="url(#b4747c4ab9)"><rect x="-6.75" width="81" fill="#000000" y="-6.75" height="80.999995" fill-opacity="0.098"/></g></mask><clipPath id="c27ecfae11"><path d="M 0 0 L 67.003906 0 L 67.003906 67.003906 L 0 67.003906 Z M 0 0 " clip-rule="nonzero"/></clipPath><clipPath id="2402487ef2"><rect x="0" width="68" y="0" height="68"/></clipPath><clipPath id="fbcfaa4490"><path d="M 8.566406 16.027344 L 58.816406 16.027344 L 58.816406 51.277344 L 8.566406 51.277344 Z M 8.566406 16.027344 " clip-rule="nonzero"/></clipPath></defs><g clip-path="url(#f06f379b61)"><g mask="url(#26970ff82f)"><g transform="matrix(1, 0, 0, 1, 0, -0.000000000000002095)"><g clip-path="url(#2402487ef2)"><g clip-path="url(#c27ecfae11)"><path fill="#ff0000" d="M 10.195312 0 L 57.3125 0 C 60.117188 0 62.667969 1.148438 64.511719 2.992188 C 66.359375 4.839844 67.507812 7.390625 67.507812 10.195312 L 67.507812 57.3125 C 67.507812 60.117188 66.359375 62.667969 64.511719 64.511719 C 62.667969 66.359375 60.117188 67.507812 57.3125 67.507812 L 10.195312 67.507812 C 7.390625 67.507812 4.839844 66.359375 2.996094 64.511719 C 1.148438 62.667969 0 60.117188 0 57.3125 L 0 10.195312 C 0 7.390625 1.148438 4.839844 2.996094 2.992188 C 4.839844 1.148438 7.390625 0 10.195312 0 " fill-opacity="1" fill-rule="nonzero"/></g></g></g></g></g><g clip-path="url(#fbcfaa4490)"><path fill="#ff0000" d="M 57.71875 21.554688 C 57.574219 21.023438 57.363281 20.519531 57.085938 20.042969 C 56.808594 19.566406 56.476562 19.132812 56.085938 18.742188 C 55.695312 18.355469 55.261719 18.023438 54.785156 17.746094 C 54.304688 17.46875 53.800781 17.261719 53.265625 17.117188 C 49.363281 16.054688 33.660156 16.054688 33.660156 16.054688 C 33.660156 16.054688 17.953125 16.085938 14.050781 17.148438 C 13.515625 17.292969 13.011719 17.5 12.53125 17.777344 C 12.054688 18.054688 11.621094 18.386719 11.230469 18.773438 C 10.839844 19.164062 10.507812 19.597656 10.230469 20.074219 C 9.953125 20.550781 9.742188 21.054688 9.597656 21.585938 C 8.566406 25.476562 8.566406 33.613281 8.566406 33.613281 C 8.566406 33.613281 8.566406 41.746094 9.628906 45.671875 C 9.773438 46.203125 9.984375 46.707031 10.261719 47.183594 C 10.539062 47.660156 10.871094 48.089844 11.261719 48.480469 C 11.652344 48.871094 12.085938 49.203125 12.566406 49.476562 C 13.042969 49.753906 13.546875 49.964844 14.082031 50.109375 C 17.984375 51.171875 33.691406 51.171875 33.691406 51.171875 C 33.691406 51.171875 49.398438 51.171875 53.300781 50.109375 C 53.832031 49.964844 54.339844 49.753906 54.816406 49.480469 C 55.292969 49.203125 55.726562 48.871094 56.117188 48.480469 C 56.507812 48.09375 56.84375 47.660156 57.121094 47.183594 C 57.394531 46.707031 57.605469 46.203125 57.75 45.671875 C 58.816406 41.78125 58.816406 33.613281 58.816406 33.613281 C 58.816406 33.613281 58.785156 25.476562 57.71875 21.554688 Z M 57.71875 21.554688 " fill-opacity="1" fill-rule="nonzero"/></g><path fill="#ffffff" d="M 28.660156 41.136719 L 41.6875 33.613281 L 28.660156 26.085938 Z M 28.660156 41.136719 " fill-opacity="1" fill-rule="nonzero"/></svg>