<svg xmlns="http://www.w3.org/2000/svg" xmlns:xlink="http://www.w3.org/1999/xlink" width="90" zoomAndPan="magnify" viewBox="0 0 67.5 67.499996" height="90" preserveAspectRatio="xMidYMid meet" version="1.0"><defs><filter x="0%" y="0%" width="100%" height="100%" id="51cabb028f"><feColorMatrix values="0 0 0 0 1 0 0 0 0 1 0 0 0 0 1 0 0 0 1 0" color-interpolation-filters="sRGB"/></filter><clipPath id="84f8d64883"><path d="M 0 0 L 67.003906 0 L 67.003906 67.003906 L 0 67.003906 Z M 0 0 " clip-rule="nonzero"/></clipPath><mask id="42b5694341"><g filter="url(#51cabb028f)"><rect x="-6.75" width="81" fill="#000000" y="-6.75" height="80.999995" fill-opacity="0.149"/></g></mask><clipPath id="127acd5373"><path d="M 0 0 L 67.003906 0 L 67.003906 67.003906 L 0 67.003906 Z M 0 0 " clip-rule="nonzero"/></clipPath><clipPath id="300333db63"><rect x="0" width="68" y="0" height="68"/></clipPath><clipPath id="963d0da89b"><path d="M 14 8.894531 L 55.125 8.894531 L 55.125 58.394531 L 14 58.394531 Z M 14 8.894531 " clip-rule="nonzero"/></clipPath></defs><g clip-path="url(#84f8d64883)"><g mask="url(#42b5694341)"><g transform="matrix(1, 0, 0, 1, 0, -0.000000000000002095)"><g clip-path="url(#300333db63)"><g clip-path="url(#127acd5373)"><path fill="#d9d9d9" d="M 10.195312 0 L 57.3125 0 C 60.117188 0 62.667969 1.148438 64.511719 2.992188 C 66.359375 4.839844 67.507812 7.390625 67.507812 10.195312 L 67.507812 57.3125 C 67.507812 60.117188 66.359375 62.667969 64.511719 64.511719 C 62.667969 66.359375 60.117188 67.507812 57.3125 67.507812 L 10.195312 67.507812 C 7.390625 67.507812 4.839844 66.359375 2.996094 64.511719 C 1.148438 62.667969 0 60.117188 0 57.3125 L 0 10.195312 C 0 7.390625 1.148438 4.839844 2.996094 2.992188 C 4.839844 1.148438 7.390625 0 10.195312 0 " fill-opacity="1" fill-rule="nonzero"/></g></g></g></g></g><g clip-path="url(#963d0da89b)"><path fill="#000000" d="M 48.433594 35.125 C 48.503906 42.597656 55.015625 45.082031 55.085938 45.113281 C 55.03125 45.289062 54.046875 48.660156 51.65625 52.136719 C 49.589844 55.144531 47.445312 58.144531 44.066406 58.203125 C 40.746094 58.265625 39.675781 56.242188 35.882812 56.242188 C 32.085938 56.242188 30.902344 58.144531 27.757812 58.265625 C 24.496094 58.386719 22.011719 55.011719 19.929688 52.015625 C 15.671875 45.886719 12.417969 34.695312 16.785156 27.140625 C 18.957031 23.386719 22.835938 21.011719 27.046875 20.949219 C 30.25 20.890625 33.273438 23.097656 35.230469 23.097656 C 37.1875 23.097656 40.859375 20.441406 44.722656 20.832031 C 46.339844 20.898438 50.875 21.484375 53.789062 25.730469 C 53.554688 25.875 48.375 28.878906 48.433594 35.125 M 42.191406 16.777344 C 43.925781 14.691406 45.089844 11.785156 44.769531 8.894531 C 42.277344 8.992188 39.257812 10.550781 37.46875 12.636719 C 35.863281 14.484375 34.457031 17.441406 34.835938 20.273438 C 37.617188 20.488281 40.460938 18.867188 42.191406 16.777344 " fill-opacity="1" fill-rule="nonzero"/></g></svg>