<svg xmlns="http://www.w3.org/2000/svg" xmlns:xlink="http://www.w3.org/1999/xlink" width="90" zoomAndPan="magnify" viewBox="0 0 67.5 67.499996" height="90" preserveAspectRatio="xMidYMid meet" version="1.0"><defs><filter x="0%" y="0%" width="100%" height="100%" id="73475efe31"><feColorMatrix values="0 0 0 0 1 0 0 0 0 1 0 0 0 0 1 0 0 0 1 0" color-interpolation-filters="sRGB"/></filter><clipPath id="8f291cbc20"><path d="M 0 0 L 67.003906 0 L 67.003906 67.003906 L 0 67.003906 Z M 0 0 " clip-rule="nonzero"/></clipPath><mask id="1043c54782"><g filter="url(#73475efe31)"><rect x="-6.75" width="81" fill="#000000" y="-6.75" height="80.999995" fill-opacity="0.098"/></g></mask><clipPath id="67584bc592"><path d="M 0 0 L 67.003906 0 L 67.003906 67.003906 L 0 67.003906 Z M 0 0 " clip-rule="nonzero"/></clipPath><clipPath id="9fbb2540c0"><rect x="0" width="68" y="0" height="68"/></clipPath><clipPath id="aa52e8daa3"><path d="M 12.042969 13.050781 L 55.542969 13.050781 L 55.542969 56.550781 L 12.042969 56.550781 Z M 12.042969 13.050781 " clip-rule="nonzero"/></clipPath><clipPath id="3b73d328ae"><path d="M 24 21 L 44 21 L 44 56.550781 L 24 56.550781 Z M 24 21 " clip-rule="nonzero"/></clipPath></defs><g clip-path="url(#8f291cbc20)"><g mask="url(#1043c54782)"><g transform="matrix(1, 0, 0, 1, 0, -0.000000000000002095)"><g clip-path="url(#9fbb2540c0)"><g clip-path="url(#67584bc592)"><path fill="#4285f4" d="M 10.195312 0 L 57.3125 0 C 60.117188 0 62.667969 1.148438 64.511719 2.992188 C 66.359375 4.839844 67.507812 7.390625 67.507812 10.195312 L 67.507812 57.3125 C 67.507812 60.117188 66.359375 62.667969 64.511719 64.511719 C 62.667969 66.359375 60.117188 67.507812 57.3125 67.507812 L 10.195312 67.507812 C 7.390625 67.507812 4.839844 66.359375 2.996094 64.511719 C 1.148438 62.667969 0 60.117188 0 57.3125 L 0 10.195312 C 0 7.390625 1.148438 4.839844 2.996094 2.992188 C 4.839844 1.148438 7.390625 0 10.195312 0 " fill-opacity="1" fill-rule="nonzero"/></g></g></g></g></g><g clip-path="url(#aa52e8daa3)"><path fill="#1877f2" d="M 55.542969 34.800781 C 55.542969 22.789062 45.804688 13.050781 33.792969 13.050781 C 21.78125 13.050781 12.042969 22.789062 12.042969 34.800781 C 12.042969 45.65625 19.996094 54.65625 30.394531 56.285156 L 30.394531 41.085938 L 24.875 41.085938 L 24.875 34.800781 L 30.394531 34.800781 L 30.394531 30.007812 C 30.394531 24.558594 33.644531 21.546875 38.609375 21.546875 C 40.992188 21.546875 43.480469 21.972656 43.480469 21.972656 L 43.480469 27.324219 L 40.738281 27.324219 C 38.035156 27.324219 37.191406 29 37.191406 30.71875 L 37.191406 34.800781 L 43.226562 34.800781 L 42.261719 41.085938 L 37.191406 41.085938 L 37.191406 56.285156 C 47.589844 54.65625 55.542969 45.65625 55.542969 34.800781 " fill-opacity="1" fill-rule="nonzero"/></g><g clip-path="url(#3b73d328ae)"><path fill="#ffffff" d="M 42.261719 41.085938 L 43.226562 34.800781 L 37.191406 34.800781 L 37.191406 30.71875 C 37.191406 29 38.035156 27.324219 40.738281 27.324219 L 43.480469 27.324219 L 43.480469 21.972656 C 43.480469 21.972656 40.992188 21.546875 38.609375 21.546875 C 33.644531 21.546875 30.394531 24.558594 30.394531 30.007812 L 30.394531 34.800781 L 24.875 34.800781 L 24.875 41.085938 L 30.394531 41.085938 L 30.394531 56.285156 C 31.503906 56.460938 32.636719 56.550781 33.792969 56.550781 C 34.949219 56.550781 36.085938 56.460938 37.191406 56.285156 L 37.191406 41.085938 L 42.261719 41.085938 " fill-opacity="1" fill-rule="nonzero"/></g></svg>