<svg xmlns="http://www.w3.org/2000/svg" xmlns:xlink="http://www.w3.org/1999/xlink" width="90" zoomAndPan="magnify" viewBox="0 0 67.5 67.499996" height="90" preserveAspectRatio="xMidYMid meet" version="1.0"><defs><filter x="0%" y="0%" width="100%" height="100%" id="ba93e59900"><feColorMatrix values="0 0 0 0 1 0 0 0 0 1 0 0 0 0 1 0 0 0 1 0" color-interpolation-filters="sRGB"/></filter><clipPath id="30a81dc833"><path d="M 0 0 L 67.003906 0 L 67.003906 67.003906 L 0 67.003906 Z M 0 0 " clip-rule="nonzero"/></clipPath><mask id="388da3e08b"><g filter="url(#ba93e59900)"><rect x="-6.75" width="81" fill="#000000" y="-6.75" height="80.999995" fill-opacity="0.098"/></g></mask><clipPath id="cf9b51a581"><path d="M 0 0 L 67.003906 0 L 67.003906 67.003906 L 0 67.003906 Z M 0 0 " clip-rule="nonzero"/></clipPath><clipPath id="7263d5e326"><rect x="0" width="68" y="0" height="68"/></clipPath><clipPath id="9929e32fc2"><path d="M 25 11.039062 L 56 11.039062 L 56 37 L 25 37 Z M 25 11.039062 " clip-rule="nonzero"/></clipPath><clipPath id="97f22f37a7"><path d="M 25 11.039062 L 56 11.039062 L 56 26 L 25 26 Z M 25 11.039062 " clip-rule="nonzero"/></clipPath><clipPath id="a752d08339"><path d="M 11.039062 22 L 30 22 L 30 48 L 11.039062 48 Z M 11.039062 22 " clip-rule="nonzero"/></clipPath><clipPath id="04c1162266"><path d="M 20 39 L 46 39 L 46 56.789062 L 20 56.789062 Z M 20 39 " clip-rule="nonzero"/></clipPath><clipPath id="ccb913d675"><path d="M 29 12 L 56.789062 12 L 56.789062 43 L 29 43 Z M 29 12 " clip-rule="nonzero"/></clipPath></defs><g clip-path="url(#30a81dc833)"><g mask="url(#388da3e08b)"><g transform="matrix(1, 0, 0, 1, 0, -0.000000000000002095)"><g clip-path="url(#7263d5e326)"><g clip-path="url(#cf9b51a581)"><path fill="#34a853" d="M 10.195312 0 L 57.3125 0 C 60.117188 0 62.667969 1.148438 64.511719 2.992188 C 66.359375 4.839844 67.507812 7.390625 67.507812 10.195312 L 67.507812 57.3125 C 67.507812 60.117188 66.359375 62.667969 64.511719 64.511719 C 62.667969 66.359375 60.117188 67.507812 57.3125 67.507812 L 10.195312 67.507812 C 7.390625 67.507812 4.839844 66.359375 2.996094 64.511719 C 1.148438 62.667969 0 60.117188 0 57.3125 L 0 10.195312 C 0 7.390625 1.148438 4.839844 2.996094 2.992188 C 4.839844 1.148438 7.390625 0 10.195312 0 " fill-opacity="1" fill-rule="nonzero"/></g></g></g></g></g><g clip-path="url(#9929e32fc2)"><path fill="#ffa000" d="M 52.40625 11.132812 C 47.554688 11.375 42.691406 11.589844 37.839844 11.832031 C 37.40625 11.84375 36.664062 11.914062 35.871094 12.273438 C 34.898438 12.707031 34.296875 13.34375 34.019531 13.703125 L 25.675781 22.050781 L 29.132812 25.519531 L 29.144531 25.519531 C 30.886719 23.800781 33.265625 22.746094 35.894531 22.746094 C 38.476562 22.746094 40.816406 23.765625 42.546875 25.410156 L 46.832031 21.125 C 45.824219 20.117188 45.824219 18.457031 46.832031 17.449219 C 47.84375 16.429688 49.5 16.429688 50.507812 17.449219 L 55.5625 12.394531 C 54.289062 11.121094 52.667969 11.121094 52.40625 11.132812 Z M 45.5 32.351562 L 45.5 31.152344 L 45.429688 31.152344 C 45.476562 31.546875 45.5 31.945312 45.5 32.351562 Z M 40.179688 36.566406 C 40.683594 36.050781 41.105469 35.425781 41.40625 34.753906 L 38.367188 34.753906 Z M 35.894531 26.347656 C 34.261719 26.347656 32.773438 26.996094 31.691406 28.066406 L 35.785156 32.171875 L 35.894531 32.28125 L 35.894531 31.152344 L 41.777344 31.152344 C 41.527344 29.902344 40.890625 28.796875 39.988281 27.96875 C 38.921875 26.960938 37.480469 26.347656 35.894531 26.347656 Z M 35.894531 26.347656 " fill-opacity="1" fill-rule="nonzero"/></g><path fill="#4675cd" d="M 35.785156 32.171875 L 35.894531 32.0625 L 35.894531 32.28125 Z M 35.785156 32.171875 " fill-opacity="1" fill-rule="nonzero"/><path fill="#4675cd" d="M 38.367188 34.753906 L 41.40625 34.753906 C 41.105469 35.425781 40.683594 36.050781 40.179688 36.566406 Z M 38.367188 34.753906 " fill-opacity="1" fill-rule="nonzero"/><path fill="#4675cd" d="M 39.988281 27.96875 C 40.890625 28.796875 41.527344 29.902344 41.777344 31.152344 L 36.808594 31.152344 Z M 39.988281 27.96875 " fill-opacity="1" fill-rule="nonzero"/><path fill="#4675cd" d="M 45.5 31.152344 L 45.5 32.351562 C 45.5 31.945312 45.476562 31.546875 45.429688 31.152344 Z M 45.5 31.152344 " fill-opacity="1" fill-rule="nonzero"/><path fill="#dc3f0f" d="M 35.894531 26.347656 C 37.480469 26.347656 38.921875 26.960938 39.988281 27.96875 L 36.808594 31.152344 L 35.894531 31.152344 L 35.894531 32.0625 L 35.785156 32.171875 L 31.691406 28.066406 C 32.773438 26.996094 34.261719 26.347656 35.894531 26.347656 Z M 35.894531 26.347656 " fill-opacity="1" fill-rule="nonzero"/><g clip-path="url(#97f22f37a7)"><path fill="#dc3f0f" d="M 55.5625 12.394531 L 50.507812 17.449219 C 49.5 16.429688 47.84375 16.429688 46.832031 17.449219 C 45.824219 18.457031 45.824219 20.117188 46.832031 21.125 L 42.546875 25.410156 C 40.816406 23.765625 38.476562 22.746094 35.894531 22.746094 C 33.265625 22.746094 30.886719 23.800781 29.144531 25.519531 L 29.132812 25.519531 L 25.675781 22.050781 L 34.019531 13.703125 C 34.296875 13.34375 34.898438 12.707031 35.871094 12.273438 C 36.664062 11.914062 37.40625 11.84375 37.839844 11.832031 C 42.691406 11.589844 47.554688 11.375 52.40625 11.132812 C 52.667969 11.121094 54.289062 11.121094 55.5625 12.394531 Z M 55.5625 12.394531 " fill-opacity="1" fill-rule="nonzero"/></g><g clip-path="url(#a752d08339)"><path fill="#eebf2f" d="M 29.132812 25.519531 C 27.378906 27.261719 26.289062 29.6875 26.289062 32.351562 C 26.289062 34.933594 27.308594 37.273438 28.953125 39.003906 L 20.140625 47.816406 L 11.878906 39.558594 C 11.746094 39.425781 11.109375 38.765625 11.109375 37.71875 C 11.097656 36.640625 11.757812 35.953125 11.878906 35.835938 L 25.675781 22.050781 Z M 29.132812 25.519531 " fill-opacity="1" fill-rule="nonzero"/></g><path fill="#eebf2f" d="M 35.785156 32.171875 L 31.511719 36.445312 C 30.503906 35.378906 29.890625 33.9375 29.890625 32.351562 C 29.890625 30.683594 30.574219 29.15625 31.679688 28.066406 C 31.679688 28.066406 31.679688 28.066406 31.691406 28.066406 Z M 35.785156 32.171875 " fill-opacity="1" fill-rule="nonzero"/><path fill="#73ac57" d="M 35.894531 38.355469 C 34.164062 38.355469 32.605469 37.625 31.511719 36.445312 L 35.785156 32.171875 L 35.894531 32.28125 L 35.894531 34.753906 L 38.367188 34.753906 L 40.179688 36.566406 C 39.089844 37.671875 37.5625 38.355469 35.894531 38.355469 Z M 35.894531 38.355469 " fill-opacity="1" fill-rule="nonzero"/><g clip-path="url(#04c1162266)"><path fill="#73ac57" d="M 45.910156 42.292969 L 32.125 56.078125 C 31.933594 56.234375 31.269531 56.738281 30.273438 56.738281 C 29.277344 56.753906 28.582031 56.222656 28.402344 56.078125 L 20.140625 47.816406 L 28.953125 39.003906 C 30.707031 40.828125 33.167969 41.957031 35.894531 41.957031 C 38.558594 41.957031 40.984375 40.867188 42.726562 39.113281 Z M 45.910156 42.292969 " fill-opacity="1" fill-rule="nonzero"/></g><path fill="#fafafa" d="M 41.40625 34.753906 C 41.105469 35.425781 40.683594 36.050781 40.179688 36.566406 C 39.089844 37.671875 37.5625 38.355469 35.894531 38.355469 C 34.164062 38.355469 32.605469 37.625 31.511719 36.445312 C 30.503906 35.378906 29.890625 33.9375 29.890625 32.351562 C 29.890625 30.683594 30.574219 29.15625 31.679688 28.066406 C 31.679688 28.066406 31.679688 28.066406 31.691406 28.066406 C 32.773438 26.996094 34.261719 26.347656 35.894531 26.347656 C 37.480469 26.347656 38.921875 26.960938 39.988281 27.96875 C 40.890625 28.796875 41.527344 29.902344 41.777344 31.152344 L 35.894531 31.152344 L 35.894531 34.753906 Z M 41.40625 34.753906 " fill-opacity="1" fill-rule="nonzero"/><g clip-path="url(#ccb913d675)"><path fill="#4675cd" d="M 55.597656 12.429688 L 55.5625 12.394531 L 50.507812 17.449219 C 51.527344 18.457031 51.527344 20.117188 50.507812 21.125 C 49.5 22.144531 47.84375 22.144531 46.832031 21.125 L 39.988281 27.96875 C 38.921875 26.960938 37.480469 26.347656 35.894531 26.347656 C 34.261719 26.347656 32.773438 26.996094 31.691406 28.066406 C 31.679688 28.066406 31.679688 28.066406 31.679688 28.066406 C 30.574219 29.15625 29.890625 30.683594 29.890625 32.351562 C 29.890625 33.9375 30.503906 35.378906 31.511719 36.445312 C 32.605469 37.625 34.164062 38.355469 35.894531 38.355469 C 37.5625 38.355469 39.089844 37.671875 40.179688 36.566406 C 40.683594 36.050781 41.105469 35.425781 41.40625 34.753906 L 35.894531 34.753906 L 35.894531 31.152344 L 45.5 31.152344 L 45.5 32.351562 C 45.5 33.179688 45.390625 33.984375 45.199219 34.753906 C 44.769531 36.421875 43.890625 37.921875 42.726562 39.113281 L 45.910156 42.292969 C 48.417969 39.796875 51.058594 37.167969 54.171875 34.046875 C 54.578125 33.671875 55.273438 32.964844 55.695312 31.824219 C 55.933594 31.152344 56.007812 30.539062 56.019531 30.09375 C 56.296875 25.207031 56.558594 20.308594 56.835938 15.410156 C 56.824219 15.109375 56.789062 13.644531 55.597656 12.429688 Z M 55.597656 12.429688 " fill-opacity="1" fill-rule="nonzero"/></g><path fill="#fafafa" d="M 45.5 32.351562 C 45.5 33.179688 45.390625 33.984375 45.199219 34.753906 C 44.769531 36.421875 43.890625 37.921875 42.726562 39.113281 C 40.984375 40.867188 38.558594 41.957031 35.894531 41.957031 C 33.167969 41.957031 30.707031 40.828125 28.953125 39.003906 C 27.308594 37.273438 26.289062 34.933594 26.289062 32.351562 C 26.289062 29.6875 27.378906 27.261719 29.132812 25.519531 L 29.144531 25.519531 C 30.886719 23.800781 33.265625 22.746094 35.894531 22.746094 C 38.476562 22.746094 40.816406 23.765625 42.546875 25.410156 L 39.988281 27.96875 C 38.921875 26.960938 37.480469 26.347656 35.894531 26.347656 C 34.261719 26.347656 32.773438 26.996094 31.691406 28.066406 C 31.679688 28.066406 31.679688 28.066406 31.679688 28.066406 C 30.574219 29.15625 29.890625 30.683594 29.890625 32.351562 C 29.890625 33.9375 30.503906 35.378906 31.511719 36.445312 C 32.605469 37.625 34.164062 38.355469 35.894531 38.355469 C 37.5625 38.355469 39.089844 37.671875 40.179688 36.566406 C 40.683594 36.050781 41.105469 35.425781 41.40625 34.753906 L 35.894531 34.753906 L 35.894531 31.152344 L 45.429688 31.152344 C 45.476562 31.546875 45.5 31.945312 45.5 32.351562 Z M 45.5 32.351562 " fill-opacity="1" fill-rule="nonzero"/><path fill="#fafafa" d="M 45.5 31.152344 L 45.5 32.351562 C 45.5 31.945312 45.476562 31.546875 45.429688 31.152344 Z M 45.5 31.152344 " fill-opacity="1" fill-rule="nonzero"/></svg>