<svg xmlns="http://www.w3.org/2000/svg" xmlns:xlink="http://www.w3.org/1999/xlink" width="90" zoomAndPan="magnify" viewBox="0 0 67.5 67.499996" height="90" preserveAspectRatio="xMidYMid meet" version="1.0"><defs><filter x="0%" y="0%" width="100%" height="100%" id="ed2db5cd53"><feColorMatrix values="0 0 0 0 1 0 0 0 0 1 0 0 0 0 1 0 0 0 1 0" color-interpolation-filters="sRGB"/></filter><clipPath id="b2341b3ede"><path d="M 0 0 L 67.003906 0 L 67.003906 67.003906 L 0 67.003906 Z M 0 0 " clip-rule="nonzero"/></clipPath><mask id="8f81e5a9cc"><g filter="url(#ed2db5cd53)"><rect x="-6.75" width="81" fill="#000000" y="-6.75" height="80.999995" fill-opacity="0.098"/></g></mask><clipPath id="e7810a7fea"><path d="M 0 0 L 67.003906 0 L 67.003906 67.003906 L 0 67.003906 Z M 0 0 " clip-rule="nonzero"/></clipPath><clipPath id="e04a855977"><rect x="0" width="68" y="0" height="68"/></clipPath></defs><path fill="#fbbc04" d="M 10.777344 43.703125 L 26.71875 16.152344 C 28.746094 17.355469 38.957031 23.058594 40.605469 24.144531 L 24.660156 51.699219 C 22.917969 54.027344 8.566406 47.234375 10.777344 43.703125 L 10.777344 43.707031 Z M 10.777344 43.703125 " fill-opacity="1" fill-rule="nonzero"/><path fill="#4285f4" d="M 56.578125 43.703125 L 40.636719 16.152344 C 38.410156 12.40625 33.609375 11.046875 29.667969 13.257812 C 25.726562 15.46875 24.523438 20.234375 26.753906 24.144531 L 42.695312 51.699219 C 44.921875 55.441406 49.722656 56.804688 53.667969 54.589844 C 57.4375 52.382812 58.808594 47.449219 56.578125 43.707031 Z M 56.578125 43.703125 " fill-opacity="1" fill-rule="nonzero"/><path fill="#34a853" d="M 25.675781 47.777344 C 25.675781 48.296875 25.625 48.808594 25.523438 49.316406 C 25.421875 49.824219 25.269531 50.316406 25.066406 50.792969 C 24.867188 51.269531 24.621094 51.726562 24.328125 52.15625 C 24.035156 52.585938 23.703125 52.984375 23.332031 53.347656 C 22.960938 53.714844 22.558594 54.042969 22.121094 54.328125 C 21.683594 54.617188 21.222656 54.859375 20.738281 55.058594 C 20.25 55.253906 19.75 55.402344 19.234375 55.503906 C 18.71875 55.605469 18.199219 55.65625 17.675781 55.65625 C 17.148438 55.65625 16.628906 55.605469 16.113281 55.503906 C 15.597656 55.402344 15.097656 55.253906 14.613281 55.058594 C 14.125 54.859375 13.664062 54.617188 13.230469 54.328125 C 12.792969 54.042969 12.386719 53.714844 12.015625 53.347656 C 11.644531 52.984375 11.3125 52.585938 11.019531 52.15625 C 10.730469 51.726562 10.484375 51.269531 10.28125 50.792969 C 10.082031 50.316406 9.929688 49.824219 9.824219 49.316406 C 9.722656 48.808594 9.671875 48.296875 9.671875 47.777344 C 9.671875 47.261719 9.722656 46.75 9.824219 46.242188 C 9.929688 45.734375 10.082031 45.242188 10.28125 44.761719 C 10.484375 44.285156 10.730469 43.832031 11.019531 43.402344 C 11.3125 42.972656 11.644531 42.574219 12.015625 42.207031 C 12.386719 41.839844 12.792969 41.515625 13.230469 41.226562 C 13.664062 40.941406 14.125 40.699219 14.613281 40.5 C 15.097656 40.300781 15.597656 40.152344 16.113281 40.050781 C 16.628906 39.949219 17.148438 39.898438 17.675781 39.898438 C 18.199219 39.898438 18.71875 39.949219 19.234375 40.050781 C 19.75 40.152344 20.25 40.300781 20.738281 40.5 C 21.222656 40.699219 21.683594 40.941406 22.121094 41.226562 C 22.558594 41.515625 22.960938 41.839844 23.332031 42.207031 C 23.703125 42.574219 24.035156 42.972656 24.328125 43.402344 C 24.621094 43.832031 24.867188 44.285156 25.066406 44.761719 C 25.269531 45.242188 25.421875 45.734375 25.523438 46.242188 C 25.625 46.75 25.675781 47.261719 25.675781 47.777344 Z M 25.675781 47.777344 " fill-opacity="1" fill-rule="nonzero"/><g clip-path="url(#b2341b3ede)"><g mask="url(#8f81e5a9cc)"><g transform="matrix(1, 0, 0, 1, 0, -0.000000000000002095)"><g clip-path="url(#e04a855977)"><g clip-path="url(#e7810a7fea)"><path fill="#4285f4" d="M 10.195312 0 L 57.3125 0 C 60.117188 0 62.667969 1.148438 64.511719 2.992188 C 66.359375 4.839844 67.507812 7.390625 67.507812 10.195312 L 67.507812 57.3125 C 67.507812 60.117188 66.359375 62.667969 64.511719 64.511719 C 62.667969 66.359375 60.117188 67.507812 57.3125 67.507812 L 10.195312 67.507812 C 7.390625 67.507812 4.839844 66.359375 2.996094 64.511719 C 1.148438 62.667969 0 60.117188 0 57.3125 L 0 10.195312 C 0 7.390625 1.148438 4.839844 2.996094 2.992188 C 4.839844 1.148438 7.390625 0 10.195312 0 " fill-opacity="1" fill-rule="nonzero"/></g></g></g></g></g></svg>