<svg xmlns="http://www.w3.org/2000/svg" xmlns:xlink="http://www.w3.org/1999/xlink" width="90" zoomAndPan="magnify" viewBox="0 0 67.5 67.499996" height="90" preserveAspectRatio="xMidYMid meet" version="1.0"><defs><filter x="0%" y="0%" width="100%" height="100%" id="96d05699d2"><feColorMatrix values="0 0 0 0 1 0 0 0 0 1 0 0 0 0 1 0 0 0 1 0" color-interpolation-filters="sRGB"/></filter><clipPath id="d615e88f3a"><path d="M 0 0 L 67.003906 0 L 67.003906 67.003906 L 0 67.003906 Z M 0 0 " clip-rule="nonzero"/></clipPath><mask id="de55ec3db6"><g filter="url(#96d05699d2)"><rect x="-6.75" width="81" fill="#000000" y="-6.75" height="80.999995" fill-opacity="0.098"/></g></mask><clipPath id="f38c1bb8ba"><path d="M 0 0 L 67.003906 0 L 67.003906 67.003906 L 0 67.003906 Z M 0 0 " clip-rule="nonzero"/></clipPath><clipPath id="36998d36b2"><rect x="0" width="68" y="0" height="68"/></clipPath><clipPath id="f3813a49c3"><path d="M 11.714844 11.714844 L 55.964844 11.714844 L 55.964844 55.964844 L 11.714844 55.964844 Z M 11.714844 11.714844 " clip-rule="nonzero"/></clipPath></defs><g clip-path="url(#d615e88f3a)"><g mask="url(#de55ec3db6)"><g transform="matrix(1, 0, 0, 1, 0, -0.000000000000002095)"><g clip-path="url(#36998d36b2)"><g clip-path="url(#f38c1bb8ba)"><path fill="#4285f4" d="M 10.195312 0 L 57.3125 0 C 60.117188 0 62.667969 1.148438 64.511719 2.992188 C 66.359375 4.839844 67.507812 7.390625 67.507812 10.195312 L 67.507812 57.3125 C 67.507812 60.117188 66.359375 62.667969 64.511719 64.511719 C 62.667969 66.359375 60.117188 67.507812 57.3125 67.507812 L 10.195312 67.507812 C 7.390625 67.507812 4.839844 66.359375 2.996094 64.511719 C 1.148438 62.667969 0 60.117188 0 57.3125 L 0 10.195312 C 0 7.390625 1.148438 4.839844 2.996094 2.992188 C 4.839844 1.148438 7.390625 0 10.195312 0 " fill-opacity="1" fill-rule="nonzero"/></g></g></g></g></g><g clip-path="url(#f3813a49c3)"><path fill="#0077b5" d="M 18.351562 11.714844 L 49.324219 11.714844 C 49.761719 11.714844 50.191406 11.753906 50.621094 11.839844 C 51.046875 11.925781 51.464844 12.050781 51.867188 12.21875 C 52.269531 12.386719 52.652344 12.589844 53.011719 12.832031 C 53.375 13.074219 53.710938 13.347656 54.019531 13.65625 C 54.328125 13.964844 54.601562 14.300781 54.84375 14.664062 C 55.085938 15.027344 55.292969 15.40625 55.457031 15.8125 C 55.625 16.214844 55.75 16.628906 55.835938 17.054688 C 55.921875 17.484375 55.964844 17.914062 55.964844 18.351562 L 55.964844 49.324219 C 55.964844 49.761719 55.921875 50.191406 55.835938 50.621094 C 55.75 51.046875 55.625 51.464844 55.457031 51.867188 C 55.292969 52.269531 55.085938 52.652344 54.84375 53.011719 C 54.601562 53.375 54.328125 53.710938 54.019531 54.019531 C 53.710938 54.328125 53.375 54.601562 53.011719 54.84375 C 52.652344 55.085938 52.269531 55.292969 51.867188 55.457031 C 51.464844 55.625 51.046875 55.75 50.621094 55.835938 C 50.191406 55.921875 49.761719 55.964844 49.324219 55.964844 L 18.351562 55.964844 C 17.914062 55.964844 17.484375 55.921875 17.054688 55.835938 C 16.628906 55.75 16.214844 55.625 15.8125 55.457031 C 15.40625 55.292969 15.027344 55.085938 14.664062 54.84375 C 14.300781 54.601562 13.964844 54.328125 13.65625 54.019531 C 13.347656 53.710938 13.074219 53.375 12.832031 53.011719 C 12.589844 52.652344 12.386719 52.269531 12.21875 51.867188 C 12.050781 51.464844 11.925781 51.046875 11.839844 50.621094 C 11.753906 50.191406 11.714844 49.761719 11.714844 49.324219 L 11.714844 18.351562 C 11.714844 17.914062 11.753906 17.484375 11.839844 17.054688 C 11.925781 16.628906 12.050781 16.214844 12.21875 15.8125 C 12.386719 15.40625 12.589844 15.027344 12.832031 14.664062 C 13.074219 14.300781 13.347656 13.964844 13.65625 13.65625 C 13.964844 13.347656 14.300781 13.074219 14.664062 12.832031 C 15.027344 12.589844 15.40625 12.386719 15.8125 12.21875 C 16.214844 12.050781 16.628906 11.925781 17.054688 11.839844 C 17.484375 11.753906 17.914062 11.714844 18.351562 11.714844 Z M 18.351562 11.714844 " fill-opacity="1" fill-rule="nonzero"/></g><path fill="#ffffff" d="M 27.183594 23.640625 C 27.183594 24.0625 27.101562 24.472656 26.941406 24.863281 C 26.777344 25.253906 26.546875 25.601562 26.246094 25.902344 C 25.945312 26.199219 25.601562 26.433594 25.210938 26.59375 C 24.816406 26.757812 24.410156 26.835938 23.984375 26.835938 C 23.5625 26.835938 23.152344 26.757812 22.761719 26.59375 C 22.371094 26.433594 22.023438 26.199219 21.722656 25.902344 C 21.425781 25.601562 21.195312 25.253906 21.03125 24.863281 C 20.867188 24.472656 20.789062 24.0625 20.789062 23.640625 C 20.789062 23.214844 20.867188 22.808594 21.03125 22.417969 C 21.195312 22.023438 21.425781 21.679688 21.722656 21.378906 C 22.023438 21.078125 22.371094 20.847656 22.761719 20.6875 C 23.152344 20.523438 23.5625 20.441406 23.984375 20.441406 C 24.410156 20.441406 24.816406 20.523438 25.210938 20.6875 C 25.601562 20.847656 25.945312 21.078125 26.246094 21.378906 C 26.546875 21.679688 26.777344 22.023438 26.941406 22.417969 C 27.101562 22.808594 27.183594 23.214844 27.183594 23.640625 Z M 27.183594 23.640625 " fill-opacity="1" fill-rule="nonzero"/><path stroke-linecap="butt" transform="matrix(0.0864258, 0, 0, 0.0864258, 11.713235, 11.71323)" fill-opacity="1" fill="#ffffff" fill-rule="nonzero" stroke-linejoin="miter" d="M 243.996037 194.007399 L 243.996037 392.018721 M 141.984726 194.007399 L 141.984726 392.018721 " stroke="#ffffff" stroke-width="66" stroke-opacity="1" stroke-miterlimit="4"/><path fill="#ffffff" d="M 35.566406 36.085938 C 35.566406 34.355469 36.691406 32.628906 38.679688 32.628906 C 40.753906 32.628906 41.53125 34.183594 41.53125 36.515625 L 41.53125 45.59375 L 47.234375 45.59375 L 47.234375 35.824219 C 47.234375 30.554688 44.46875 28.132812 40.664062 28.132812 C 37.726562 28.132812 36.257812 29.777344 35.566406 30.898438 " fill-opacity="1" fill-rule="nonzero"/></svg>