<svg xmlns="http://www.w3.org/2000/svg" xmlns:xlink="http://www.w3.org/1999/xlink" width="90" zoomAndPan="magnify" viewBox="0 0 67.5 67.499996" height="90" preserveAspectRatio="xMidYMid meet" version="1.0"><defs><filter x="0%" y="0%" width="100%" height="100%" id="faedb118e1"><feColorMatrix values="0 0 0 0 1 0 0 0 0 1 0 0 0 0 1 0 0 0 1 0" color-interpolation-filters="sRGB"/></filter><clipPath id="38d0b9dd95"><path d="M 0 0 L 67.003906 0 L 67.003906 67.003906 L 0 67.003906 Z M 0 0 " clip-rule="nonzero"/></clipPath><mask id="a2c5095ac6"><g filter="url(#faedb118e1)"><rect x="-6.75" width="81" fill="#000000" y="-6.75" height="80.999995" fill-opacity="0.098"/></g></mask><clipPath id="377ab1041d"><path d="M 0 0 L 67.003906 0 L 67.003906 67.003906 L 0 67.003906 Z M 0 0 " clip-rule="nonzero"/></clipPath><clipPath id="7626bbc174"><rect x="0" width="68" y="0" height="68"/></clipPath><clipPath id="411277abdf"><path d="M 12.507812 12.507812 L 33 12.507812 L 33 33 L 12.507812 33 Z M 12.507812 12.507812 " clip-rule="nonzero"/></clipPath><clipPath id="635ca84e6c"><path d="M 34 12.507812 L 55.257812 12.507812 L 55.257812 33 L 34 33 Z M 34 12.507812 " clip-rule="nonzero"/></clipPath><clipPath id="3475384e3c"><path d="M 12.507812 34 L 33 34 L 33 55.257812 L 12.507812 55.257812 Z M 12.507812 34 " clip-rule="nonzero"/></clipPath><clipPath id="34ff2d97ef"><path d="M 34 34 L 55.257812 34 L 55.257812 55.257812 L 34 55.257812 Z M 34 34 " clip-rule="nonzero"/></clipPath></defs><g clip-path="url(#38d0b9dd95)"><g mask="url(#a2c5095ac6)"><g transform="matrix(1, 0, 0, 1, 0, -0.000000000000002095)"><g clip-path="url(#7626bbc174)"><g clip-path="url(#377ab1041d)"><path fill="#fbbc04" d="M 10.195312 0 L 57.3125 0 C 60.117188 0 62.667969 1.148438 64.511719 2.992188 C 66.359375 4.839844 67.507812 7.390625 67.507812 10.195312 L 67.507812 57.3125 C 67.507812 60.117188 66.359375 62.667969 64.511719 64.511719 C 62.667969 66.359375 60.117188 67.507812 57.3125 67.507812 L 10.195312 67.507812 C 7.390625 67.507812 4.839844 66.359375 2.996094 64.511719 C 1.148438 62.667969 0 60.117188 0 57.3125 L 0 10.195312 C 0 7.390625 1.148438 4.839844 2.996094 2.992188 C 4.839844 1.148438 7.390625 0 10.195312 0 " fill-opacity="1" fill-rule="nonzero"/></g></g></g></g></g><g clip-path="url(#411277abdf)"><path fill="#f25022" d="M 12.507812 12.507812 L 32.820312 12.507812 L 32.820312 32.820312 L 12.507812 32.820312 Z M 12.507812 12.507812 " fill-opacity="1" fill-rule="nonzero"/></g><g clip-path="url(#635ca84e6c)"><path fill="#7fba00" d="M 34.941406 12.507812 L 55.257812 12.507812 L 55.257812 32.820312 L 34.941406 32.820312 Z M 34.941406 12.507812 " fill-opacity="1" fill-rule="nonzero"/></g><g clip-path="url(#3475384e3c)"><path fill="#00a4ef" d="M 12.507812 34.941406 L 32.820312 34.941406 L 32.820312 55.257812 L 12.507812 55.257812 Z M 12.507812 34.941406 " fill-opacity="1" fill-rule="nonzero"/></g><g clip-path="url(#34ff2d97ef)"><path fill="#ffb900" d="M 34.941406 34.941406 L 55.257812 34.941406 L 55.257812 55.257812 L 34.941406 55.257812 Z M 34.941406 34.941406 " fill-opacity="1" fill-rule="nonzero"/></g></svg>