<svg xmlns="http://www.w3.org/2000/svg" xmlns:xlink="http://www.w3.org/1999/xlink" width="90" zoomAndPan="magnify" viewBox="0 0 67.5 67.499996" height="90" preserveAspectRatio="xMidYMid meet" version="1.0"><defs><filter x="0%" y="0%" width="100%" height="100%" id="51eb4f5245"><feColorMatrix values="0 0 0 0 1 0 0 0 0 1 0 0 0 0 1 0 0 0 1 0" color-interpolation-filters="sRGB"/></filter><clipPath id="74a4cf2b11"><path d="M 0 0 L 67.003906 0 L 67.003906 67.003906 L 0 67.003906 Z M 0 0 " clip-rule="nonzero"/></clipPath><mask id="dc9f569c82"><g filter="url(#51eb4f5245)"><rect x="-6.75" width="81" fill="#000000" y="-6.75" height="80.999995" fill-opacity="0.098"/></g></mask><clipPath id="bdc009ef62"><path d="M 0 0 L 67.003906 0 L 67.003906 67.003906 L 0 67.003906 Z M 0 0 " clip-rule="nonzero"/></clipPath><clipPath id="e231d86950"><rect x="0" width="68" y="0" height="68"/></clipPath><clipPath id="40f1588bff"><path d="M 10.390625 10.390625 L 56.890625 10.390625 L 56.890625 56.890625 L 10.390625 56.890625 Z M 10.390625 10.390625 " clip-rule="nonzero"/></clipPath><clipPath id="e5be33db52"><path d="M 33.640625 10.390625 C 46.480469 10.390625 56.890625 20.796875 56.890625 33.640625 C 56.890625 46.480469 46.480469 56.890625 33.640625 56.890625 C 20.796875 56.890625 10.390625 46.480469 10.390625 33.640625 C 10.390625 20.796875 20.796875 10.390625 33.640625 10.390625 Z M 33.640625 10.390625 " clip-rule="evenodd"/></clipPath><linearGradient x1="-14.956801" gradientTransform="matrix(0.0908203, 0, 0, 0.0908203, 10.389707, 10.389697)" y1="19.761492" x2="556.946215" gradientUnits="userSpaceOnUse" y2="452.615364" id="1cf24fb078"><stop stop-opacity="1" stop-color="rgb(81.599426%, 15.299988%, 17.298889%)" offset="0"/><stop stop-opacity="1" stop-color="rgb(81.599426%, 15.299988%, 17.298889%)" offset="0.125"/><stop stop-opacity="1" stop-color="rgb(81.668091%, 15.2771%, 17.282104%)" offset="0.15625"/><stop stop-opacity="1" stop-color="rgb(81.92749%, 15.19165%, 17.222595%)" offset="0.1875"/><stop stop-opacity="1" stop-color="rgb(82.305908%, 15.068054%, 17.134094%)" offset="0.21875"/><stop stop-opacity="1" stop-color="rgb(82.684326%, 14.945984%, 17.047119%)" offset="0.25"/><stop stop-opacity="1" stop-color="rgb(83.062744%, 14.822388%, 16.958618%)" offset="0.28125"/><stop stop-opacity="1" stop-color="rgb(83.439636%, 14.698792%, 16.870117%)" offset="0.3125"/><stop stop-opacity="1" stop-color="rgb(83.818054%, 14.576721%, 16.783142%)" offset="0.34375"/><stop stop-opacity="1" stop-color="rgb(84.196472%, 14.453125%, 16.694641%)" offset="0.375"/><stop stop-opacity="1" stop-color="rgb(84.57489%, 14.329529%, 16.607666%)" offset="0.40625"/><stop stop-opacity="1" stop-color="rgb(84.953308%, 14.205933%, 16.519165%)" offset="0.430805"/><stop stop-opacity="1" stop-color="rgb(85.142517%, 14.144897%, 16.474915%)" offset="0.4375"/><stop stop-opacity="1" stop-color="rgb(85.331726%, 14.083862%, 16.430664%)" offset="0.46875"/><stop stop-opacity="1" stop-color="rgb(85.710144%, 13.960266%, 16.343689%)" offset="0.5"/><stop stop-opacity="1" stop-color="rgb(86.088562%, 13.83667%, 16.255188%)" offset="0.53125"/><stop stop-opacity="1" stop-color="rgb(86.465454%, 13.7146%, 16.166687%)" offset="0.5625"/><stop stop-opacity="1" stop-color="rgb(86.843872%, 13.591003%, 16.079712%)" offset="0.569195"/><stop stop-opacity="1" stop-color="rgb(87.033081%, 13.529968%, 16.035461%)" offset="0.59375"/><stop stop-opacity="1" stop-color="rgb(87.22229%, 13.467407%, 15.991211%)" offset="0.625"/><stop stop-opacity="1" stop-color="rgb(87.600708%, 13.345337%, 15.90271%)" offset="0.65625"/><stop stop-opacity="1" stop-color="rgb(87.979126%, 13.221741%, 15.815735%)" offset="0.6875"/><stop stop-opacity="1" stop-color="rgb(88.357544%, 13.098145%, 15.727234%)" offset="0.71875"/><stop stop-opacity="1" stop-color="rgb(88.735962%, 12.974548%, 15.638733%)" offset="0.75"/><stop stop-opacity="1" stop-color="rgb(89.11438%, 12.852478%, 15.551758%)" offset="0.78125"/><stop stop-opacity="1" stop-color="rgb(89.492798%, 12.728882%, 15.463257%)" offset="0.8125"/><stop stop-opacity="1" stop-color="rgb(89.86969%, 12.605286%, 15.374756%)" offset="0.84375"/><stop stop-opacity="1" stop-color="rgb(90.129089%, 12.521362%, 15.315247%)" offset="0.875"/><stop stop-opacity="1" stop-color="rgb(90.19928%, 12.5%, 15.299988%)" offset="1"/></linearGradient></defs><g clip-path="url(#74a4cf2b11)"><g mask="url(#dc9f569c82)"><g transform="matrix(1, 0, 0, 1, 0, -0.000000000000002095)"><g clip-path="url(#e231d86950)"><g clip-path="url(#bdc009ef62)"><path fill="#ff0000" d="M 10.195312 0 L 57.3125 0 C 60.117188 0 62.667969 1.148438 64.511719 2.992188 C 66.359375 4.839844 67.507812 7.390625 67.507812 10.195312 L 67.507812 57.3125 C 67.507812 60.117188 66.359375 62.667969 64.511719 64.511719 C 62.667969 66.359375 60.117188 67.507812 57.3125 67.507812 L 10.195312 67.507812 C 7.390625 67.507812 4.839844 66.359375 2.996094 64.511719 C 1.148438 62.667969 0 60.117188 0 57.3125 L 0 10.195312 C 0 7.390625 1.148438 4.839844 2.996094 2.992188 C 4.839844 1.148438 7.390625 0 10.195312 0 " fill-opacity="1" fill-rule="nonzero"/></g></g></g></g></g><g clip-path="url(#40f1588bff)"><g clip-path="url(#e5be33db52)"><path fill="url(#1cf24fb078)" d="M 10.390625 10.390625 L 10.390625 56.890625 L 56.890625 56.890625 L 56.890625 10.390625 Z M 10.390625 10.390625 " fill-rule="nonzero"/></g></g><path fill="#ffffff" d="M 31.746094 38.054688 C 31.027344 41.820312 30.152344 45.429688 27.554688 47.316406 C 26.75 41.625 28.730469 37.351562 29.648438 32.8125 C 28.082031 30.171875 29.839844 24.863281 33.144531 26.171875 C 37.214844 27.78125 29.621094 35.980469 34.71875 37.007812 C 40.039062 38.074219 42.210938 27.773438 38.910156 24.425781 C 34.144531 19.585938 25.035156 24.3125 26.15625 31.238281 C 26.425781 32.933594 28.175781 33.445312 26.855469 35.78125 C 23.804688 35.105469 22.890625 32.699219 23.007812 29.492188 C 23.199219 24.238281 27.726562 20.5625 32.269531 20.054688 C 38.015625 19.410156 43.410156 22.164062 44.15625 27.570312 C 44.992188 33.667969 41.5625 40.277344 35.417969 39.800781 C 33.75 39.671875 33.050781 38.847656 31.746094 38.054688 Z M 31.746094 38.054688 " fill-opacity="1" fill-rule="nonzero"/></svg>