<svg xmlns="http://www.w3.org/2000/svg" xmlns:xlink="http://www.w3.org/1999/xlink" width="90" zoomAndPan="magnify" viewBox="0 0 67.5 67.499996" height="90" preserveAspectRatio="xMidYMid meet" version="1.0"><defs><filter x="0%" y="0%" width="100%" height="100%" id="1a71c00321"><feColorMatrix values="0 0 0 0 1 0 0 0 0 1 0 0 0 0 1 0 0 0 1 0" color-interpolation-filters="sRGB"/></filter><clipPath id="4659cb0601"><path d="M 0 0 L 67.003906 0 L 67.003906 67.003906 L 0 67.003906 Z M 0 0 " clip-rule="nonzero"/></clipPath><mask id="720c546725"><g filter="url(#1a71c00321)"><rect x="-6.75" width="81" fill="#000000" y="-6.75" height="80.999995" fill-opacity="0.098"/></g></mask><clipPath id="c373f56741"><path d="M 0 0 L 67.003906 0 L 67.003906 67.003906 L 0 67.003906 Z M 0 0 " clip-rule="nonzero"/></clipPath><clipPath id="caaa28a4ee"><rect x="0" width="68" y="0" height="68"/></clipPath><clipPath id="df99d00e57"><path d="M 12.175781 12.175781 L 55.675781 12.175781 L 55.675781 55.675781 L 12.175781 55.675781 Z M 12.175781 12.175781 " clip-rule="nonzero"/></clipPath><clipPath id="f543d7c16a"><path d="M 30 12.175781 L 55.675781 12.175781 L 55.675781 38 L 30 38 Z M 30 12.175781 " clip-rule="nonzero"/></clipPath><clipPath id="95c7e2d0c9"><path d="M 12.175781 12.175781 L 55.675781 12.175781 L 55.675781 47 L 12.175781 47 Z M 12.175781 12.175781 " clip-rule="nonzero"/></clipPath></defs><g clip-path="url(#4659cb0601)"><g mask="url(#720c546725)"><g transform="matrix(1, 0, 0, 1, 0, -0.000000000000002095)"><g clip-path="url(#caaa28a4ee)"><g clip-path="url(#c373f56741)"><path fill="#ffa500" d="M 10.195312 0 L 57.3125 0 C 60.117188 0 62.667969 1.148438 64.511719 2.992188 C 66.359375 4.839844 67.507812 7.390625 67.507812 10.195312 L 67.507812 57.3125 C 67.507812 60.117188 66.359375 62.667969 64.511719 64.511719 C 62.667969 66.359375 60.117188 67.507812 57.3125 67.507812 L 10.195312 67.507812 C 7.390625 67.507812 4.839844 66.359375 2.996094 64.511719 C 1.148438 62.667969 0 60.117188 0 57.3125 L 0 10.195312 C 0 7.390625 1.148438 4.839844 2.996094 2.992188 C 4.839844 1.148438 7.390625 0 10.195312 0 " fill-opacity="1" fill-rule="nonzero"/></g></g></g></g></g><g clip-path="url(#df99d00e57)"><path fill="#ff4500" d="M 18.703125 12.175781 L 49.152344 12.175781 C 49.578125 12.175781 50.003906 12.21875 50.425781 12.300781 C 50.84375 12.386719 51.253906 12.507812 51.648438 12.671875 C 52.042969 12.835938 52.421875 13.039062 52.777344 13.277344 C 53.132812 13.515625 53.460938 13.785156 53.765625 14.085938 C 54.066406 14.390625 54.339844 14.71875 54.578125 15.078125 C 54.816406 15.433594 55.015625 15.808594 55.179688 16.203125 C 55.34375 16.601562 55.46875 17.007812 55.550781 17.429688 C 55.632812 17.847656 55.675781 18.273438 55.675781 18.703125 L 55.675781 49.152344 C 55.675781 49.578125 55.632812 50.003906 55.550781 50.425781 C 55.46875 50.84375 55.34375 51.253906 55.179688 51.648438 C 55.015625 52.042969 54.816406 52.421875 54.578125 52.777344 C 54.339844 53.132812 54.066406 53.460938 53.765625 53.765625 C 53.460938 54.066406 53.132812 54.339844 52.777344 54.578125 C 52.421875 54.816406 52.042969 55.015625 51.648438 55.179688 C 51.253906 55.34375 50.84375 55.46875 50.425781 55.550781 C 50.003906 55.632812 49.578125 55.675781 49.152344 55.675781 L 18.703125 55.675781 C 18.273438 55.675781 17.847656 55.632812 17.429688 55.550781 C 17.007812 55.46875 16.601562 55.34375 16.203125 55.179688 C 15.808594 55.015625 15.433594 54.816406 15.078125 54.578125 C 14.71875 54.339844 14.390625 54.066406 14.085938 53.765625 C 13.785156 53.460938 13.515625 53.132812 13.277344 52.777344 C 13.039062 52.421875 12.835938 52.042969 12.671875 51.648438 C 12.507812 51.253906 12.386719 50.84375 12.300781 50.425781 C 12.21875 50.003906 12.175781 49.578125 12.175781 49.152344 L 12.175781 18.703125 C 12.175781 18.273438 12.21875 17.847656 12.300781 17.429688 C 12.386719 17.007812 12.507812 16.601562 12.671875 16.203125 C 12.835938 15.808594 13.039062 15.433594 13.277344 15.078125 C 13.515625 14.71875 13.785156 14.390625 14.085938 14.085938 C 14.390625 13.785156 14.71875 13.515625 15.078125 13.277344 C 15.433594 13.039062 15.808594 12.835938 16.203125 12.671875 C 16.601562 12.507812 17.007812 12.386719 17.429688 12.300781 C 17.847656 12.21875 18.273438 12.175781 18.703125 12.175781 Z M 18.703125 12.175781 " fill-opacity="1" fill-rule="nonzero"/></g><path fill="#ffffff" d="M 48.964844 38.089844 C 48.964844 38.777344 48.867188 39.457031 48.675781 40.128906 C 48.484375 40.800781 48.199219 41.453125 47.820312 42.089844 C 47.441406 42.722656 46.980469 43.324219 46.429688 43.894531 C 45.882812 44.464844 45.257812 44.992188 44.558594 45.480469 C 43.863281 45.964844 43.101562 46.398438 42.28125 46.777344 C 41.460938 47.160156 40.59375 47.480469 39.679688 47.746094 C 38.769531 48.007812 37.828125 48.203125 36.859375 48.339844 C 35.890625 48.472656 34.914062 48.539062 33.925781 48.539062 C 32.9375 48.539062 31.960938 48.472656 30.992188 48.339844 C 30.023438 48.203125 29.082031 48.007812 28.171875 47.746094 C 27.257812 47.480469 26.394531 47.160156 25.570312 46.777344 C 24.75 46.398438 23.992188 45.964844 23.292969 45.480469 C 22.59375 44.992188 21.972656 44.464844 21.421875 43.894531 C 20.875 43.324219 20.410156 42.722656 20.03125 42.089844 C 19.65625 41.453125 19.371094 40.800781 19.175781 40.128906 C 18.984375 39.457031 18.886719 38.777344 18.886719 38.089844 C 18.886719 37.402344 18.984375 36.722656 19.175781 36.050781 C 19.371094 35.378906 19.65625 34.722656 20.03125 34.089844 C 20.410156 33.457031 20.875 32.855469 21.421875 32.285156 C 21.972656 31.714844 22.59375 31.183594 23.292969 30.699219 C 23.992188 30.214844 24.75 29.78125 25.570312 29.402344 C 26.394531 29.019531 27.257812 28.699219 28.171875 28.433594 C 29.082031 28.171875 30.023438 27.972656 30.992188 27.839844 C 31.960938 27.707031 32.9375 27.640625 33.925781 27.640625 C 34.914062 27.640625 35.890625 27.707031 36.859375 27.839844 C 37.828125 27.972656 38.769531 28.171875 39.679688 28.433594 C 40.59375 28.699219 41.460938 29.019531 42.28125 29.402344 C 43.101562 29.78125 43.863281 30.214844 44.558594 30.699219 C 45.257812 31.183594 45.882812 31.714844 46.429688 32.285156 C 46.980469 32.855469 47.441406 33.457031 47.820312 34.089844 C 48.199219 34.722656 48.484375 35.378906 48.675781 36.050781 C 48.867188 36.722656 48.964844 37.402344 48.964844 38.089844 Z M 48.964844 38.089844 " fill-opacity="1" fill-rule="nonzero"/><path fill="#ff4500" d="M 29.082031 41.65625 C 32.058594 44.121094 35.796875 44.121094 38.769531 41.65625 L 39.789062 42.59375 C 36.21875 45.566406 31.632812 45.566406 28.0625 42.59375 Z M 29.082031 41.65625 " fill-opacity="1" fill-rule="nonzero"/><path fill="#ff4500" d="M 41.316406 36.390625 C 41.316406 36.707031 41.257812 37.007812 41.136719 37.300781 C 41.015625 37.59375 40.84375 37.847656 40.621094 38.074219 C 40.398438 38.296875 40.140625 38.46875 39.847656 38.589844 C 39.558594 38.707031 39.253906 38.769531 38.9375 38.769531 C 38.625 38.769531 38.320312 38.707031 38.027344 38.589844 C 37.738281 38.46875 37.480469 38.296875 37.257812 38.074219 C 37.035156 37.847656 36.863281 37.59375 36.742188 37.300781 C 36.621094 37.007812 36.558594 36.707031 36.558594 36.390625 C 36.558594 36.074219 36.621094 35.769531 36.742188 35.480469 C 36.863281 35.1875 37.035156 34.929688 37.257812 34.707031 C 37.480469 34.484375 37.738281 34.3125 38.027344 34.191406 C 38.320312 34.070312 38.625 34.011719 38.9375 34.011719 C 39.253906 34.011719 39.558594 34.070312 39.847656 34.191406 C 40.140625 34.3125 40.398438 34.484375 40.621094 34.707031 C 40.84375 34.929688 41.015625 35.1875 41.136719 35.480469 C 41.257812 35.769531 41.316406 36.074219 41.316406 36.390625 Z M 41.316406 36.390625 " fill-opacity="1" fill-rule="nonzero"/><path fill="#ff4500" d="M 31.292969 36.390625 C 31.292969 36.707031 31.230469 37.007812 31.113281 37.300781 C 30.992188 37.59375 30.820312 37.847656 30.597656 38.074219 C 30.371094 38.296875 30.117188 38.46875 29.824219 38.589844 C 29.53125 38.707031 29.230469 38.769531 28.914062 38.769531 C 28.597656 38.769531 28.292969 38.707031 28.003906 38.589844 C 27.710938 38.46875 27.453125 38.296875 27.230469 38.074219 C 27.007812 37.847656 26.835938 37.59375 26.714844 37.300781 C 26.59375 37.007812 26.535156 36.707031 26.535156 36.390625 C 26.535156 36.074219 26.59375 35.769531 26.714844 35.480469 C 26.835938 35.1875 27.007812 34.929688 27.230469 34.707031 C 27.453125 34.484375 27.710938 34.3125 28.003906 34.191406 C 28.292969 34.070312 28.597656 34.011719 28.914062 34.011719 C 29.230469 34.011719 29.53125 34.070312 29.824219 34.191406 C 30.117188 34.3125 30.371094 34.484375 30.597656 34.707031 C 30.820312 34.929688 30.992188 35.1875 31.113281 35.480469 C 31.230469 35.769531 31.292969 36.074219 31.292969 36.390625 Z M 31.292969 36.390625 " fill-opacity="1" fill-rule="nonzero"/><g clip-path="url(#f543d7c16a)"><path stroke-linecap="butt" transform="matrix(0.0849609, 0, 0, 0.0849609, 12.176471, 12.176461)" fill="none" stroke-linejoin="miter" d="M 418.014917 125.00351 C 418.014917 128.727648 417.279285 132.267878 415.853997 135.716155 C 414.42871 139.164431 412.405721 142.152937 409.785031 144.819604 C 407.164341 147.440294 404.129858 149.463283 400.727559 150.88857 C 397.279282 152.267881 393.693075 153.003513 390.014914 153.003513 C 386.290775 153.003513 382.704568 152.267881 379.302269 150.88857 C 375.853992 149.463283 372.819509 147.440294 370.198819 144.819604 C 367.578129 142.152937 365.555141 139.164431 364.129853 135.716155 C 362.704565 132.267878 362.01491 128.727648 362.01491 125.00351 C 362.01491 121.279371 362.704565 117.693164 364.129853 114.290865 C 365.555141 110.842588 367.578129 107.808105 370.198819 105.187415 C 372.819509 102.566725 375.853992 100.543737 379.302269 99.118449 C 382.704568 97.693162 386.290775 97.003506 390.014914 97.003506 C 393.693075 97.003506 397.279282 97.693162 400.727559 99.118449 C 404.129858 100.543737 407.164341 102.566725 409.785031 105.187415 C 412.405721 107.808105 414.42871 110.842588 415.853997 114.290865 C 417.279285 117.693164 418.014917 121.279371 418.014917 125.00351 Z M 418.014917 125.00351 " stroke="#ffffff" stroke-width="25" stroke-opacity="1" stroke-miterlimit="4"/></g><g clip-path="url(#95c7e2d0c9)"><path stroke-linecap="butt" transform="matrix(0.0849609, 0, 0, 0.0849609, 12.176471, 12.176461)" fill="none" stroke-linejoin="miter" d="M 86.980394 282.015023 C 42.014871 259.992032 82.014876 190.015012 126.980399 231.992028 M 425.003424 282.015023 C 470.014923 259.992032 430.014918 190.015012 385.003419 231.992028 M 258.014898 186.980529 L 282.0149 103.992013 L 362.01491 119.992015 " stroke="#ffffff" stroke-width="22" stroke-opacity="1" stroke-miterlimit="4"/></g></svg>