<svg xmlns="http://www.w3.org/2000/svg" xmlns:xlink="http://www.w3.org/1999/xlink" width="90" zoomAndPan="magnify" viewBox="0 0 67.5 67.499996" height="90" preserveAspectRatio="xMidYMid meet" version="1.0"><defs><filter x="0%" y="0%" width="100%" height="100%" id="42ffb5ea0f"><feColorMatrix values="0 0 0 0 1 0 0 0 0 1 0 0 0 0 1 0 0 0 1 0" color-interpolation-filters="sRGB"/></filter><clipPath id="3dcb0dc67a"><path d="M 0 0 L 67.003906 0 L 67.003906 67.003906 L 0 67.003906 Z M 0 0 " clip-rule="nonzero"/></clipPath><mask id="26ae1740a0"><g filter="url(#42ffb5ea0f)"><rect x="-6.75" width="81" fill="#000000" y="-6.75" height="80.999995" fill-opacity="0.098"/></g></mask><clipPath id="68483a6225"><path d="M 0.144531 0 L 67.003906 0 L 67.003906 67.003906 L 0.144531 67.003906 Z M 0.144531 0 " clip-rule="nonzero"/></clipPath><clipPath id="4788116e03"><rect x="0" width="68" y="0" height="68"/></clipPath><clipPath id="78981fd453"><path d="M 11.25 10.8125 L 56.25 10.8125 L 56.25 56.5625 L 11.25 56.5625 Z M 11.25 10.8125 " clip-rule="nonzero"/></clipPath></defs><g clip-path="url(#3dcb0dc67a)"><g mask="url(#26ae1740a0)"><g transform="matrix(1, 0, 0, 1, 0, -0.000000000000002095)"><g clip-path="url(#4788116e03)"><g clip-path="url(#68483a6225)"><path fill="#ffff00" d="M 10.339844 0 L 57.453125 0 C 60.261719 0 62.808594 1.148438 64.65625 2.992188 C 66.503906 4.839844 67.652344 7.390625 67.652344 10.195312 L 67.652344 57.3125 C 67.652344 60.117188 66.503906 62.667969 64.65625 64.511719 C 62.808594 66.359375 60.261719 67.507812 57.453125 67.507812 L 10.339844 67.507812 C 7.535156 67.507812 4.984375 66.359375 3.136719 64.511719 C 1.289062 62.667969 0.144531 60.117188 0.144531 57.3125 L 0.144531 10.195312 C 0.144531 7.390625 1.289062 4.839844 3.136719 2.992188 C 4.984375 1.148438 7.535156 0 10.339844 0 " fill-opacity="1" fill-rule="nonzero"/></g></g></g></g></g><g clip-path="url(#78981fd453)"><path fill="#fffc00" d="M 56.25 33.6875 C 56.25 34.4375 56.214844 35.183594 56.140625 35.929688 C 56.070312 36.671875 55.960938 37.414062 55.816406 38.148438 C 55.671875 38.882812 55.492188 39.605469 55.28125 40.324219 C 55.066406 41.039062 54.816406 41.742188 54.535156 42.433594 C 54.253906 43.125 53.941406 43.800781 53.59375 44.460938 C 53.246094 45.121094 52.867188 45.761719 52.457031 46.386719 C 52.046875 47.007812 51.609375 47.609375 51.140625 48.1875 C 50.675781 48.765625 50.179688 49.320312 49.660156 49.847656 C 49.136719 50.378906 48.59375 50.878906 48.023438 51.355469 C 47.453125 51.828125 46.863281 52.273438 46.25 52.691406 C 45.636719 53.105469 45.003906 53.492188 44.355469 53.84375 C 43.707031 54.195312 43.039062 54.515625 42.359375 54.804688 C 41.679688 55.089844 40.984375 55.339844 40.28125 55.558594 C 39.574219 55.777344 38.859375 55.957031 38.136719 56.101562 C 37.414062 56.25 36.6875 56.359375 35.953125 56.433594 C 35.222656 56.503906 34.484375 56.542969 33.75 56.542969 C 33.011719 56.542969 32.277344 56.503906 31.542969 56.433594 C 30.808594 56.359375 30.082031 56.25 29.359375 56.101562 C 28.636719 55.957031 27.921875 55.777344 27.21875 55.558594 C 26.511719 55.339844 25.820312 55.089844 25.136719 54.804688 C 24.457031 54.515625 23.792969 54.195312 23.144531 53.84375 C 22.492188 53.492188 21.863281 53.105469 21.25 52.691406 C 20.636719 52.273438 20.042969 51.828125 19.476562 51.355469 C 18.90625 50.878906 18.359375 50.378906 17.839844 49.847656 C 17.316406 49.320312 16.824219 48.765625 16.355469 48.1875 C 15.890625 47.609375 15.449219 47.007812 15.039062 46.386719 C 14.632812 45.761719 14.253906 45.121094 13.90625 44.460938 C 13.558594 43.800781 13.242188 43.125 12.960938 42.433594 C 12.679688 41.742188 12.433594 41.039062 12.21875 40.324219 C 12.003906 39.605469 11.824219 38.882812 11.679688 38.148438 C 11.539062 37.414062 11.429688 36.671875 11.355469 35.929688 C 11.285156 35.183594 11.25 34.4375 11.25 33.6875 C 11.25 32.941406 11.285156 32.195312 11.355469 31.449219 C 11.429688 30.703125 11.539062 29.964844 11.679688 29.230469 C 11.824219 28.496094 12.003906 27.769531 12.21875 27.054688 C 12.433594 26.339844 12.679688 25.632812 12.960938 24.941406 C 13.242188 24.25 13.558594 23.574219 13.90625 22.914062 C 14.253906 22.253906 14.632812 21.613281 15.039062 20.992188 C 15.449219 20.371094 15.890625 19.769531 16.355469 19.191406 C 16.824219 18.613281 17.316406 18.058594 17.839844 17.527344 C 18.359375 17 18.90625 16.496094 19.476562 16.023438 C 20.042969 15.546875 20.636719 15.101562 21.25 14.6875 C 21.863281 14.269531 22.492188 13.886719 23.144531 13.535156 C 23.792969 13.179688 24.457031 12.859375 25.136719 12.574219 C 25.820312 12.289062 26.511719 12.035156 27.21875 11.820312 C 27.921875 11.601562 28.636719 11.421875 29.359375 11.273438 C 30.082031 11.128906 30.808594 11.019531 31.542969 10.945312 C 32.277344 10.871094 33.011719 10.835938 33.75 10.835938 C 34.484375 10.835938 35.222656 10.871094 35.953125 10.945312 C 36.6875 11.019531 37.414062 11.128906 38.136719 11.273438 C 38.859375 11.421875 39.574219 11.601562 40.28125 11.820312 C 40.984375 12.035156 41.679688 12.289062 42.359375 12.574219 C 43.039062 12.859375 43.707031 13.179688 44.355469 13.535156 C 45.003906 13.886719 45.636719 14.269531 46.25 14.6875 C 46.863281 15.101562 47.453125 15.546875 48.023438 16.023438 C 48.59375 16.496094 49.136719 17 49.660156 17.527344 C 50.179688 18.058594 50.675781 18.613281 51.140625 19.191406 C 51.609375 19.769531 52.046875 20.371094 52.457031 20.992188 C 52.867188 21.613281 53.246094 22.253906 53.59375 22.914062 C 53.941406 23.574219 54.253906 24.25 54.535156 24.941406 C 54.816406 25.632812 55.066406 26.339844 55.28125 27.054688 C 55.492188 27.769531 55.671875 28.496094 55.816406 29.230469 C 55.960938 29.964844 56.070312 30.703125 56.140625 31.449219 C 56.214844 32.195312 56.25 32.941406 56.25 33.6875 Z M 56.25 33.6875 " fill-opacity="1" fill-rule="nonzero"/></g><path fill="#ffffff" d="M 33.929688 48.019531 C 33.839844 48.019531 33.777344 48.019531 33.6875 48.019531 C 33.628906 48.019531 33.597656 48.019531 33.539062 48.019531 C 31.738281 48.019531 30.570312 47.207031 29.460938 46.394531 C 28.679688 45.851562 27.960938 45.339844 27.089844 45.191406 C 26.667969 45.128906 26.25 45.101562 25.859375 45.101562 C 25.140625 45.101562 24.570312 45.222656 24.148438 45.28125 C 23.910156 45.339844 23.667969 45.371094 23.519531 45.371094 C 23.339844 45.371094 23.160156 45.339844 23.070312 45.039062 C 23.007812 44.800781 22.949219 44.558594 22.890625 44.316406 C 22.769531 43.714844 22.679688 43.355469 22.4375 43.324219 C 19.589844 42.871094 18.75 42.269531 18.570312 41.847656 C 18.539062 41.789062 18.539062 41.726562 18.539062 41.667969 C 18.539062 41.515625 18.660156 41.367188 18.808594 41.335938 C 23.21875 40.613281 25.167969 36.097656 25.257812 35.917969 C 25.257812 35.917969 25.257812 35.917969 25.257812 35.886719 C 25.527344 35.34375 25.589844 34.863281 25.410156 34.472656 C 25.109375 33.75 24.117188 33.449219 23.460938 33.238281 C 23.308594 33.175781 23.160156 33.148438 23.039062 33.085938 C 21.75 32.574219 21.628906 32.03125 21.6875 31.761719 C 21.777344 31.308594 22.378906 30.980469 22.890625 30.980469 C 23.039062 30.980469 23.160156 31.007812 23.25 31.039062 C 23.820312 31.308594 24.359375 31.460938 24.808594 31.460938 C 25.4375 31.460938 25.710938 31.1875 25.738281 31.160156 C 25.710938 30.859375 25.710938 30.558594 25.679688 30.226562 C 25.558594 28.148438 25.378906 25.558594 26.039062 24.082031 C 28.019531 19.71875 32.1875 19.355469 33.449219 19.355469 C 33.480469 19.355469 33.988281 19.355469 33.988281 19.355469 L 34.050781 19.355469 C 35.277344 19.355469 39.480469 19.6875 41.460938 24.144531 C 42.117188 25.617188 41.9375 28.207031 41.820312 30.316406 L 41.820312 30.40625 C 41.789062 30.707031 41.789062 30.980469 41.757812 31.25 C 41.789062 31.28125 42.027344 31.519531 42.597656 31.550781 C 43.019531 31.519531 43.527344 31.398438 44.070312 31.128906 C 44.21875 31.070312 44.398438 31.039062 44.519531 31.039062 C 44.699219 31.039062 44.878906 31.070312 45.058594 31.128906 C 45.507812 31.28125 45.777344 31.609375 45.808594 31.910156 C 45.808594 32.214844 45.570312 32.664062 44.429688 33.117188 C 44.308594 33.175781 44.160156 33.207031 44.007812 33.265625 C 43.347656 33.476562 42.359375 33.777344 42.058594 34.5 C 41.910156 34.894531 41.9375 35.375 42.210938 35.917969 C 42.210938 35.917969 42.210938 35.917969 42.210938 35.945312 C 42.300781 36.128906 44.25 40.644531 48.660156 41.367188 C 48.808594 41.398438 48.929688 41.546875 48.929688 41.699219 C 48.929688 41.757812 48.898438 41.820312 48.898438 41.878906 C 48.71875 42.300781 47.910156 42.902344 45.027344 43.355469 C 44.789062 43.382812 44.699219 43.683594 44.578125 44.347656 C 44.519531 44.589844 44.488281 44.800781 44.398438 45.039062 C 44.339844 45.25 44.21875 45.339844 43.980469 45.339844 L 43.949219 45.339844 C 43.800781 45.339844 43.589844 45.3125 43.320312 45.25 C 42.839844 45.160156 42.300781 45.070312 41.609375 45.070312 C 41.21875 45.070312 40.800781 45.101562 40.378906 45.160156 C 39.507812 45.3125 38.789062 45.824219 38.007812 46.363281 C 36.898438 47.207031 35.757812 48.019531 33.929688 48.019531 Z M 33.929688 48.019531 " fill-opacity="1" fill-rule="nonzero"/><path fill="#030303" d="M 34.050781 19.6875 C 35.21875 19.6875 39.238281 19.988281 41.160156 24.265625 C 41.789062 25.679688 41.640625 28.207031 41.488281 30.257812 C 41.460938 30.585938 41.460938 30.886719 41.429688 31.1875 L 41.429688 31.308594 L 41.519531 31.398438 C 41.550781 31.429688 41.878906 31.792969 42.597656 31.820312 C 43.078125 31.792969 43.617188 31.640625 44.1875 31.371094 C 44.277344 31.339844 44.398438 31.308594 44.519531 31.308594 C 44.667969 31.308594 44.820312 31.339844 44.9375 31.398438 L 44.96875 31.398438 C 45.269531 31.519531 45.480469 31.703125 45.507812 31.882812 C 45.507812 31.972656 45.417969 32.363281 44.339844 32.785156 C 44.21875 32.816406 44.097656 32.875 43.917969 32.9375 C 43.199219 33.148438 42.148438 33.507812 41.789062 34.351562 C 41.578125 34.832031 41.640625 35.40625 41.9375 36.039062 C 42.058594 36.339844 44.097656 40.914062 48.628906 41.667969 C 48.628906 41.699219 48.628906 41.699219 48.597656 41.726562 C 48.507812 41.910156 48.027344 42.542969 45 43.023438 C 44.519531 43.082031 44.398438 43.625 44.277344 44.257812 C 44.21875 44.46875 44.1875 44.710938 44.097656 44.949219 C 44.070312 45.011719 44.070312 45.011719 44.007812 45.011719 C 44.007812 45.011719 43.980469 45.011719 43.980469 45.011719 C 43.828125 45.011719 43.648438 44.980469 43.410156 44.949219 C 42.988281 44.859375 42.390625 44.769531 41.640625 44.769531 C 41.21875 44.769531 40.769531 44.800781 40.347656 44.890625 C 39.417969 45.039062 38.667969 45.582031 37.859375 46.15625 C 36.777344 46.90625 35.667969 47.71875 33.960938 47.71875 C 33.898438 47.71875 33.808594 47.71875 33.75 47.71875 L 33.6875 47.71875 C 33.660156 47.71875 33.597656 47.71875 33.570312 47.71875 C 31.859375 47.71875 30.75 46.9375 29.667969 46.15625 C 28.859375 45.582031 28.109375 45.039062 27.179688 44.890625 C 26.730469 44.828125 26.308594 44.769531 25.890625 44.769531 C 25.140625 44.769531 24.539062 44.890625 24.117188 44.980469 C 23.878906 45.039062 23.667969 45.070312 23.550781 45.070312 C 23.429688 45.070312 23.429688 45.070312 23.398438 44.980469 C 23.339844 44.738281 23.277344 44.527344 23.21875 44.289062 C 23.070312 43.65625 22.980469 43.113281 22.5 43.054688 C 19.4375 42.570312 18.960938 41.9375 18.898438 41.757812 C 18.898438 41.726562 18.867188 41.699219 18.867188 41.699219 C 23.398438 40.945312 25.4375 36.367188 25.558594 36.066406 C 25.859375 35.433594 25.917969 34.863281 25.710938 34.382812 C 25.347656 33.539062 24.269531 33.175781 23.578125 32.964844 C 23.429688 32.90625 23.277344 32.875 23.160156 32.816406 C 22.230469 32.453125 21.960938 32.09375 21.988281 31.851562 C 22.050781 31.582031 22.46875 31.339844 22.859375 31.339844 C 22.949219 31.339844 23.007812 31.339844 23.070312 31.371094 C 23.699219 31.671875 24.269531 31.820312 24.777344 31.820312 C 25.558594 31.820312 25.917969 31.460938 25.949219 31.398438 L 26.039062 31.308594 L 26.039062 31.191406 C 26.007812 30.886719 26.007812 30.585938 25.980469 30.257812 C 25.859375 28.207031 25.679688 25.648438 26.308594 24.265625 C 28.230469 20.019531 32.25 19.6875 33.449219 19.6875 C 33.480469 19.6875 33.988281 19.6875 33.988281 19.6875 C 33.988281 19.6875 34.019531 19.6875 34.050781 19.6875 M 34.050781 19.054688 C 34.019531 19.054688 33.988281 19.054688 33.960938 19.054688 C 33.960938 19.054688 33.449219 19.054688 33.417969 19.054688 C 32.128906 19.054688 27.777344 19.417969 25.738281 24.023438 C 25.050781 25.589844 25.230469 28.207031 25.347656 30.316406 C 25.378906 30.558594 25.378906 30.828125 25.410156 31.070312 C 25.289062 31.128906 25.109375 31.1875 24.808594 31.1875 C 24.390625 31.1875 23.910156 31.070312 23.367188 30.796875 C 23.21875 30.738281 23.070312 30.707031 22.890625 30.707031 C 22.257812 30.707031 21.507812 31.128906 21.390625 31.761719 C 21.300781 32.214844 21.507812 32.875 22.949219 33.449219 C 23.070312 33.507812 23.25 33.539062 23.398438 33.597656 C 24 33.777344 24.898438 34.078125 25.140625 34.652344 C 25.257812 34.953125 25.230469 35.34375 24.988281 35.796875 C 24.988281 35.796875 24.988281 35.828125 24.988281 35.828125 C 24.898438 36.007812 23.007812 40.375 18.777344 41.066406 C 18.449219 41.125 18.210938 41.398438 18.238281 41.726562 C 18.238281 41.820312 18.269531 41.9375 18.300781 42.027344 C 18.628906 42.78125 19.949219 43.324219 22.378906 43.683594 C 22.46875 43.804688 22.558594 44.195312 22.589844 44.4375 C 22.648438 44.679688 22.679688 44.917969 22.769531 45.160156 C 22.828125 45.402344 23.039062 45.703125 23.519531 45.703125 C 23.730469 45.703125 23.9375 45.640625 24.210938 45.613281 C 24.628906 45.523438 25.167969 45.433594 25.859375 45.433594 C 26.25 45.433594 26.640625 45.460938 27.058594 45.523438 C 27.839844 45.640625 28.5 46.125 29.277344 46.667969 C 30.390625 47.449219 31.648438 48.351562 33.539062 48.351562 C 33.597656 48.351562 33.628906 48.351562 33.6875 48.351562 C 33.75 48.351562 33.839844 48.351562 33.929688 48.351562 C 35.847656 48.351562 37.078125 47.449219 38.1875 46.667969 C 38.96875 46.125 39.628906 45.640625 40.410156 45.523438 C 40.800781 45.460938 41.21875 45.433594 41.609375 45.433594 C 42.269531 45.433594 42.808594 45.523438 43.257812 45.613281 C 43.558594 45.671875 43.800781 45.703125 43.949219 45.703125 L 44.007812 45.703125 C 44.367188 45.703125 44.640625 45.523438 44.730469 45.160156 C 44.789062 44.917969 44.847656 44.679688 44.910156 44.4375 C 44.96875 44.195312 45.058594 43.804688 45.117188 43.714844 C 47.550781 43.324219 48.898438 42.78125 49.199219 42.058594 C 49.230469 41.96875 49.257812 41.878906 49.257812 41.757812 C 49.289062 41.425781 49.050781 41.125 48.71875 41.097656 C 44.488281 40.402344 42.597656 36.039062 42.507812 35.855469 C 42.507812 35.855469 42.507812 35.828125 42.507812 35.828125 C 42.269531 35.375 42.238281 34.984375 42.359375 34.683594 C 42.597656 34.109375 43.5 33.808594 44.097656 33.628906 C 44.277344 33.566406 44.429688 33.539062 44.550781 33.476562 C 45.597656 33.054688 46.140625 32.542969 46.109375 31.941406 C 46.109375 31.492188 45.75 31.070312 45.148438 30.859375 C 44.96875 30.769531 44.730469 30.738281 44.488281 30.738281 C 44.339844 30.738281 44.097656 30.769531 43.890625 30.859375 C 43.378906 31.097656 42.929688 31.21875 42.539062 31.25 C 42.269531 31.25 42.117188 31.160156 42.027344 31.128906 C 42.027344 30.917969 42.058594 30.707031 42.058594 30.46875 L 42.058594 30.375 C 42.179688 28.269531 42.359375 25.617188 41.667969 24.054688 C 39.6875 19.386719 35.339844 19.054688 34.050781 19.054688 Z M 34.050781 19.054688 " fill-opacity="1" fill-rule="nonzero"/></svg>