<svg xmlns="http://www.w3.org/2000/svg" width="500" height="500" viewBox="0 0 500 500" fill="none"><path d="M63.5015 176.962H122.341L116.938 193.965H101.681V255.993H82.5913V193.965H63.538L63.5015 176.962Z" fill="black"></path><path d="M218.702 176.963H278.892L273.49 193.966H256.918V255.994H237.865V193.966H218.739L218.702 176.963Z" fill="black"></path><path d="M125.918 202.103H144.789V255.994H126.064L125.918 202.103Z" fill="black"></path><path d="M152.271 176.744H171.106V213.56L189.794 195.316H212.279L188.663 218.23L215.126 255.994H194.357L176.69 229.76L171.106 235.16V255.994H152.271V176.744Z" fill="black"></path><path d="M345.274 176.744H364.327V213.56L382.979 195.316H405.464L381.848 218.23L408.128 255.994H387.359L369.729 229.76L364.327 235.16V255.994H345.456L345.274 176.744Z" fill="black"></path><path d="M135.372 195.936C140.613 195.936 144.862 191.689 144.862 186.45C144.862 181.21 140.613 176.963 135.372 176.963C130.131 176.963 125.882 181.21 125.882 186.45C125.882 191.689 130.131 195.936 135.372 195.936Z" fill="black"></path><path d="M305.975 239.429C297.307 239.429 290.28 232.404 290.28 223.739C290.28 215.074 297.307 208.05 305.975 208.05C314.643 208.05 321.67 215.074 321.67 223.739C321.65 232.396 314.635 239.409 305.975 239.429ZM305.975 191.484C288.155 191.484 273.708 205.925 273.708 223.739C273.708 241.553 288.155 255.994 305.975 255.994C323.795 255.994 338.242 241.553 338.242 223.739C338.242 215.185 334.842 206.98 328.791 200.932C322.74 194.883 314.533 191.484 305.975 191.484Z" fill="black"></path><ellipse cx="424.262" cy="213.978" rx="8.27433" ry="8.27434" fill="#FE2C55"></ellipse><ellipse cx="424.262" cy="237.975" rx="8.27433" ry="8.27434" fill="#25F4EE"></ellipse><path d="M94.762 312.562H91.1339V291.663C91.1339 290.012 91.2353 287.991 91.4381 285.602H91.3512C91.0036 287.007 90.6922 288.013 90.417 288.621L79.7717 312.562H77.9903L67.3667 288.795C67.0626 288.1 66.7512 287.035 66.4326 285.602H66.3457C66.4615 286.847 66.5195 288.882 66.5195 291.706V312.562H63V281.409H67.823L77.382 303.134C78.1206 304.799 78.5986 306.045 78.8158 306.87H78.9462C79.569 305.161 80.0687 303.887 80.4452 303.047L90.1998 281.409H94.762V312.562Z" fill="black"></path><path d="M118.866 312.562H115.303V309.086H115.216C113.666 311.751 111.385 313.084 108.372 313.084C106.156 313.084 104.418 312.497 103.158 311.324C101.913 310.151 101.29 308.594 101.29 306.653C101.29 302.496 103.738 300.078 108.633 299.397L115.303 298.463C115.303 294.683 113.775 292.792 110.719 292.792C108.039 292.792 105.621 293.705 103.463 295.53V291.88C105.65 290.49 108.17 289.794 111.023 289.794C116.251 289.794 118.866 292.561 118.866 298.093V312.562ZM115.303 301.309L109.937 302.047C108.286 302.279 107.04 302.692 106.2 303.286C105.36 303.865 104.94 304.901 104.94 306.392C104.94 307.479 105.324 308.369 106.091 309.065C106.873 309.745 107.909 310.086 109.198 310.086C110.965 310.086 112.421 309.47 113.565 308.239C114.723 306.993 115.303 305.422 115.303 303.525V301.309Z" fill="black"></path><path d="M137.625 293.923C137.002 293.445 136.104 293.206 134.931 293.206C133.41 293.206 132.135 293.923 131.107 295.357C130.093 296.79 129.586 298.746 129.586 301.222V312.563H126.023V290.316H129.586V294.9H129.673C130.18 293.336 130.955 292.12 131.998 291.251C133.041 290.367 134.207 289.925 135.496 289.925C136.422 289.925 137.132 290.027 137.625 290.229V293.923Z" fill="black"></path><path d="M160.403 312.562H155.406L145.586 301.873H145.499V312.562H141.937V279.627H145.499V300.505H145.586L154.928 290.316H159.599L149.28 301.048L160.403 312.562Z" fill="black"></path><path d="M182.378 302.33H166.67C166.728 304.806 167.394 306.718 168.669 308.065C169.944 309.412 171.696 310.086 173.926 310.086C176.432 310.086 178.735 309.26 180.835 307.609V310.955C178.88 312.374 176.294 313.084 173.079 313.084C169.936 313.084 167.467 312.077 165.671 310.064C163.875 308.036 162.977 305.19 162.977 301.526C162.977 298.064 163.955 295.247 165.91 293.075C167.88 290.888 170.32 289.794 173.231 289.794C176.142 289.794 178.395 290.736 179.988 292.619C181.581 294.502 182.378 297.116 182.378 300.461V302.33ZM178.728 299.31C178.713 297.253 178.214 295.653 177.229 294.509C176.258 293.365 174.904 292.792 173.166 292.792C171.486 292.792 170.059 293.394 168.886 294.596C167.713 295.798 166.989 297.369 166.714 299.31H178.728Z" fill="black"></path><path d="M198.551 312.345C197.711 312.808 196.603 313.04 195.227 313.04C191.331 313.04 189.383 310.867 189.383 306.522V293.357H185.56V290.316H189.383V284.884L192.946 283.733V290.316H198.551V293.357H192.946V305.892C192.946 307.384 193.2 308.449 193.706 309.086C194.213 309.723 195.053 310.042 196.227 310.042C197.125 310.042 197.899 309.796 198.551 309.303V312.345Z" fill="black"></path><path d="M205.579 284.667C204.942 284.667 204.399 284.45 203.95 284.015C203.501 283.581 203.276 283.03 203.276 282.364C203.276 281.698 203.501 281.148 203.95 280.713C204.399 280.264 204.942 280.04 205.579 280.04C206.231 280.04 206.781 280.264 207.23 280.713C207.694 281.148 207.926 281.698 207.926 282.364C207.926 283.001 207.694 283.545 207.23 283.994C206.781 284.442 206.231 284.667 205.579 284.667ZM207.317 312.562H203.754V290.316H207.317V312.562Z" fill="black"></path><path d="M233.441 312.562H229.878V299.875C229.878 295.153 228.154 292.792 224.707 292.792C222.926 292.792 221.449 293.466 220.276 294.813C219.117 296.145 218.538 297.833 218.538 299.875V312.562H214.975V290.316H218.538V294.009H218.624C220.304 291.199 222.738 289.794 225.924 289.794C228.357 289.794 230.218 290.584 231.507 292.162C232.796 293.727 233.441 295.993 233.441 298.962V312.562Z" fill="black"></path><path d="M259.608 310.781C259.608 318.949 255.698 323.034 247.877 323.034C245.125 323.034 242.72 322.512 240.664 321.47V317.907C243.169 319.297 245.559 319.992 247.833 319.992C253.308 319.992 256.045 317.081 256.045 311.259V308.826H255.958C254.264 311.664 251.715 313.084 248.311 313.084C245.545 313.084 243.314 312.099 241.62 310.129C239.94 308.145 239.1 305.487 239.1 302.156C239.1 298.376 240.005 295.371 241.815 293.14C243.64 290.91 246.131 289.794 249.289 289.794C252.287 289.794 254.51 290.997 255.958 293.401H256.045V290.316H259.608V310.781ZM256.045 302.504V299.223C256.045 297.456 255.444 295.943 254.242 294.683C253.054 293.423 251.57 292.792 249.788 292.792C247.587 292.792 245.863 293.596 244.618 295.204C243.372 296.797 242.749 299.035 242.749 301.917C242.749 304.394 243.343 306.378 244.531 307.87C245.733 309.347 247.319 310.086 249.289 310.086C251.287 310.086 252.91 309.376 254.155 307.957C255.415 306.537 256.045 304.72 256.045 302.504Z" fill="black"></path><path d="M284.048 300.787V312.562H280.398V281.409H288.958C292.289 281.409 294.867 282.22 296.692 283.842C298.531 285.464 299.451 287.752 299.451 290.707C299.451 293.662 298.43 296.08 296.388 297.963C294.36 299.846 291.615 300.787 288.154 300.787H284.048ZM284.048 284.711V297.485H287.871C290.391 297.485 292.311 296.913 293.628 295.769C294.961 294.61 295.627 292.981 295.627 290.881C295.627 286.768 293.194 284.711 288.328 284.711H284.048Z" fill="black"></path><path d="M319.709 312.562H316.146V309.086H316.06C314.51 311.751 312.229 313.084 309.216 313.084C307 313.084 305.262 312.497 304.002 311.324C302.757 310.151 302.134 308.594 302.134 306.653C302.134 302.496 304.581 300.078 309.477 299.397L316.146 298.463C316.146 294.683 314.618 292.792 311.562 292.792C308.883 292.792 306.464 293.705 304.306 295.53V291.88C306.493 290.49 309.013 289.794 311.867 289.794C317.095 289.794 319.709 292.561 319.709 298.093V312.562ZM316.146 301.309L310.78 302.047C309.129 302.279 307.884 302.692 307.044 303.286C306.204 303.865 305.784 304.901 305.784 306.392C305.784 307.479 306.167 308.369 306.935 309.065C307.717 309.745 308.753 310.086 310.042 310.086C311.809 310.086 313.264 309.47 314.408 308.239C315.567 306.993 316.146 305.422 316.146 303.525V301.309Z" fill="black"></path><path d="M338.469 293.923C337.846 293.445 336.948 293.206 335.775 293.206C334.254 293.206 332.98 293.923 331.951 295.357C330.938 296.79 330.431 298.746 330.431 301.222V312.563H326.868V290.316H330.431V294.9H330.517C331.024 293.336 331.799 292.12 332.842 291.251C333.885 290.367 335.051 289.925 336.34 289.925C337.267 289.925 337.976 290.027 338.469 290.229V293.923Z" fill="black"></path><path d="M353.1 312.345C352.26 312.808 351.152 313.04 349.776 313.04C345.88 313.04 343.932 310.867 343.932 306.522V293.357H340.108V290.316H343.932V284.884L347.495 283.733V290.316H353.1V293.357H347.495V305.892C347.495 307.384 347.748 308.449 348.255 309.086C348.762 309.723 349.602 310.042 350.775 310.042C351.673 310.042 352.448 309.796 353.1 309.303V312.345Z" fill="black"></path><path d="M376.769 312.562H373.206V299.875C373.206 295.153 371.483 292.792 368.036 292.792C366.254 292.792 364.777 293.466 363.604 294.813C362.445 296.145 361.866 297.833 361.866 299.875V312.562H358.303V290.316H361.866V294.009H361.953C363.633 291.199 366.066 289.794 369.252 289.794C371.685 289.794 373.546 290.584 374.835 292.162C376.124 293.727 376.769 295.993 376.769 298.962V312.562Z" fill="black"></path><path d="M401.828 302.33H386.121C386.179 304.806 386.845 306.718 388.12 308.065C389.394 309.412 391.147 310.086 393.377 310.086C395.883 310.086 398.186 309.26 400.286 307.609V310.955C398.33 312.374 395.745 313.084 392.53 313.084C389.387 313.084 386.918 312.077 385.122 310.064C383.326 308.036 382.428 305.19 382.428 301.526C382.428 298.064 383.405 295.247 385.361 293.075C387.33 290.888 389.771 289.794 392.682 289.794C395.593 289.794 397.845 290.736 399.438 292.619C401.032 294.502 401.828 297.116 401.828 300.461V302.33ZM398.178 299.31C398.164 297.253 397.664 295.653 396.679 294.509C395.709 293.365 394.355 292.792 392.617 292.792C390.937 292.792 389.51 293.394 388.337 294.596C387.164 295.798 386.44 297.369 386.164 299.31H398.178Z" fill="black"></path><path d="M419.284 293.923C418.661 293.445 417.763 293.206 416.59 293.206C415.069 293.206 413.795 293.923 412.766 295.357C411.752 296.79 411.246 298.746 411.246 301.222V312.563H407.683V290.316H411.246V294.9H411.332C411.839 293.336 412.614 292.12 413.657 291.251C414.7 290.367 415.866 289.925 417.155 289.925C418.082 289.925 418.791 290.027 419.284 290.229V293.923Z" fill="black"></path><path d="M422.249 311.758V307.935C424.189 309.369 426.326 310.086 428.657 310.086C431.786 310.086 433.35 309.043 433.35 306.957C433.35 306.363 433.212 305.864 432.937 305.458C432.677 305.038 432.314 304.669 431.851 304.35C431.402 304.032 430.866 303.749 430.243 303.503C429.635 303.242 428.976 302.974 428.266 302.699C427.282 302.308 426.413 301.917 425.659 301.526C424.921 301.12 424.298 300.671 423.791 300.179C423.299 299.672 422.922 299.1 422.661 298.463C422.415 297.825 422.292 297.08 422.292 296.225C422.292 295.182 422.531 294.263 423.009 293.466C423.487 292.655 424.124 291.981 424.921 291.446C425.717 290.895 426.623 290.482 427.636 290.207C428.665 289.932 429.722 289.794 430.808 289.794C432.735 289.794 434.458 290.128 435.979 290.794V294.4C434.342 293.328 432.459 292.792 430.33 292.792C429.664 292.792 429.063 292.872 428.527 293.031C427.991 293.176 427.528 293.386 427.137 293.661C426.76 293.937 426.463 294.27 426.246 294.661C426.043 295.037 425.942 295.457 425.942 295.921C425.942 296.5 426.043 296.985 426.246 297.376C426.463 297.768 426.775 298.115 427.18 298.419C427.586 298.723 428.078 298.999 428.657 299.245C429.237 299.491 429.896 299.759 430.634 300.049C431.619 300.425 432.503 300.816 433.285 301.222C434.067 301.613 434.733 302.062 435.284 302.569C435.834 303.061 436.254 303.633 436.544 304.285C436.848 304.937 437 305.712 437 306.61C437 307.71 436.754 308.666 436.261 309.477C435.783 310.288 435.139 310.962 434.328 311.498C433.517 312.034 432.582 312.432 431.525 312.693C430.468 312.953 429.36 313.084 428.201 313.084C425.913 313.084 423.929 312.642 422.249 311.758Z" fill="black"></path></svg>