<svg xmlns="http://www.w3.org/2000/svg" xmlns:xlink="http://www.w3.org/1999/xlink" width="90" zoomAndPan="magnify" viewBox="0 0 67.5 67.499996" height="90" preserveAspectRatio="xMidYMid meet" version="1.0"><defs><clipPath id="c3db46c744"><path d="M 0 0 L 67.003906 0 L 67.003906 67.003906 L 0 67.003906 Z M 0 0 " clip-rule="nonzero"/></clipPath><clipPath id="5a19a6edd6"><path d="M 9.925781 9.925781 L 57.925781 9.925781 L 57.925781 57.925781 L 9.925781 57.925781 Z M 9.925781 9.925781 " clip-rule="nonzero"/></clipPath></defs><g clip-path="url(#c3db46c744)"><path fill="#000000" d="M 10.195312 0 L 57.3125 0 C 60.117188 0 62.667969 1.148438 64.511719 2.992188 C 66.359375 4.839844 67.507812 7.390625 67.507812 10.195312 L 67.507812 57.3125 C 67.507812 60.117188 66.359375 62.667969 64.511719 64.511719 C 62.667969 66.359375 60.117188 67.507812 57.3125 67.507812 L 10.195312 67.507812 C 7.390625 67.507812 4.839844 66.359375 2.996094 64.511719 C 1.148438 62.667969 0 60.117188 0 57.3125 L 0 10.195312 C 0 7.390625 1.148438 4.839844 2.996094 2.992188 C 4.839844 1.148438 7.390625 0 10.195312 0 " fill-opacity="1" fill-rule="nonzero"/></g><g clip-path="url(#5a19a6edd6)"><path fill="#000000" d="M 17.90625 9.921875 L 49.945312 9.921875 C 50.46875 9.921875 50.988281 9.972656 51.5 10.074219 C 52.015625 10.175781 52.515625 10.328125 53 10.527344 C 53.484375 10.730469 53.941406 10.972656 54.378906 11.265625 C 54.8125 11.558594 55.214844 11.886719 55.585938 12.257812 C 55.957031 12.628906 56.289062 13.03125 56.578125 13.46875 C 56.871094 13.902344 57.117188 14.363281 57.316406 14.847656 C 57.515625 15.332031 57.667969 15.828125 57.769531 16.34375 C 57.875 16.859375 57.925781 17.375 57.925781 17.898438 L 57.925781 49.9375 C 57.925781 50.460938 57.875 50.980469 57.769531 51.496094 C 57.667969 52.007812 57.515625 52.507812 57.316406 52.992188 C 57.117188 53.476562 56.871094 53.933594 56.578125 54.371094 C 56.289062 54.808594 55.957031 55.210938 55.585938 55.582031 C 55.214844 55.949219 54.8125 56.28125 54.378906 56.574219 C 53.941406 56.863281 53.484375 57.109375 53 57.308594 C 52.515625 57.511719 52.015625 57.660156 51.5 57.765625 C 50.988281 57.867188 50.46875 57.917969 49.945312 57.917969 L 17.90625 57.917969 C 17.382812 57.917969 16.863281 57.867188 16.351562 57.765625 C 15.835938 57.660156 15.335938 57.511719 14.851562 57.308594 C 14.371094 57.109375 13.910156 56.863281 13.472656 56.574219 C 13.039062 56.28125 12.636719 55.949219 12.265625 55.582031 C 11.894531 55.210938 11.5625 54.808594 11.273438 54.371094 C 10.980469 53.933594 10.734375 53.476562 10.535156 52.992188 C 10.335938 52.507812 10.183594 52.007812 10.082031 51.496094 C 9.980469 50.980469 9.925781 50.460938 9.925781 49.9375 L 9.925781 17.898438 C 9.925781 17.375 9.980469 16.859375 10.082031 16.34375 C 10.183594 15.828125 10.335938 15.332031 10.535156 14.847656 C 10.734375 14.363281 10.980469 13.902344 11.273438 13.46875 C 11.5625 13.03125 11.894531 12.628906 12.265625 12.257812 C 12.636719 11.886719 13.039062 11.558594 13.472656 11.265625 C 13.910156 10.972656 14.371094 10.730469 14.851562 10.527344 C 15.335938 10.328125 15.835938 10.175781 16.351562 10.074219 C 16.863281 9.972656 17.382812 9.921875 17.90625 9.921875 Z M 17.90625 9.921875 " fill-opacity="1" fill-rule="nonzero"/></g><path fill="#00f6ef" d="M 48.886719 29.992188 L 48.886719 23.59375 C 40.519531 23.238281 40.25 15.636719 40.25 14.921875 L 40.25 14.867188 L 33.785156 14.867188 L 33.785156 39.796875 C 33.785156 40.152344 33.746094 40.507812 33.671875 40.855469 C 33.597656 41.207031 33.488281 41.542969 33.34375 41.871094 C 33.199219 42.195312 33.019531 42.503906 32.8125 42.792969 C 32.601562 43.085938 32.363281 43.347656 32.097656 43.589844 C 31.835938 43.828125 31.546875 44.039062 31.238281 44.21875 C 30.929688 44.398438 30.605469 44.542969 30.265625 44.65625 C 29.925781 44.765625 29.578125 44.84375 29.222656 44.882812 C 28.867188 44.921875 28.511719 44.921875 28.15625 44.886719 C 27.800781 44.851562 27.453125 44.78125 27.113281 44.671875 C 26.773438 44.5625 26.445312 44.421875 26.136719 44.246094 C 25.824219 44.070312 25.535156 43.863281 25.269531 43.625 C 25 43.386719 24.761719 43.125 24.546875 42.839844 C 24.335938 42.550781 24.15625 42.246094 24.003906 41.921875 C 23.855469 41.59375 23.742188 41.257812 23.664062 40.910156 C 23.589844 40.5625 23.546875 40.207031 23.542969 39.851562 C 23.539062 39.492188 23.570312 39.140625 23.640625 38.789062 C 23.710938 38.4375 23.816406 38.097656 23.957031 37.769531 C 24.101562 37.441406 24.273438 37.132812 24.480469 36.839844 C 24.683594 36.546875 24.917969 36.28125 25.183594 36.035156 C 25.445312 35.792969 25.726562 35.582031 26.035156 35.398438 C 26.339844 35.214844 26.664062 35.0625 27.003906 34.949219 C 27.339844 34.832031 27.6875 34.753906 28.042969 34.710938 C 28.394531 34.664062 28.75 34.660156 29.109375 34.691406 C 29.464844 34.722656 29.8125 34.789062 30.15625 34.894531 L 30.15625 28.292969 C 29.660156 28.226562 29.160156 28.195312 28.660156 28.195312 C 27.898438 28.195312 27.144531 28.269531 26.398438 28.417969 C 25.652344 28.566406 24.925781 28.789062 24.222656 29.078125 C 23.519531 29.371094 22.851562 29.726562 22.21875 30.152344 C 21.585938 30.574219 21 31.054688 20.460938 31.59375 C 19.921875 32.132812 19.441406 32.71875 19.015625 33.351562 C 18.59375 33.984375 18.238281 34.652344 17.945312 35.355469 C 17.652344 36.058594 17.433594 36.785156 17.285156 37.53125 C 17.136719 38.28125 17.0625 39.035156 17.0625 39.796875 C 17.0625 40.558594 17.136719 41.3125 17.285156 42.058594 C 17.433594 42.804688 17.652344 43.53125 17.945312 44.234375 C 18.238281 44.9375 18.59375 45.605469 19.015625 46.238281 C 19.441406 46.871094 19.921875 47.457031 20.460938 47.996094 C 21 48.535156 21.585938 49.015625 22.21875 49.4375 C 22.851562 49.863281 23.519531 50.21875 24.222656 50.511719 C 24.925781 50.800781 25.652344 51.023438 26.398438 51.171875 C 27.144531 51.320312 27.898438 51.394531 28.660156 51.394531 C 29.421875 51.394531 30.175781 51.320312 30.921875 51.171875 C 31.671875 51.023438 32.394531 50.800781 33.097656 50.511719 C 33.804688 50.21875 34.472656 49.863281 35.105469 49.4375 C 35.738281 49.015625 36.324219 48.535156 36.863281 47.996094 C 37.402344 47.457031 37.882812 46.871094 38.304688 46.238281 C 38.726562 45.605469 39.085938 44.9375 39.375 44.234375 C 39.667969 43.53125 39.886719 42.804688 40.035156 42.058594 C 40.183594 41.3125 40.257812 40.558594 40.257812 39.796875 C 40.257812 39.632812 40.257812 39.472656 40.25 39.3125 L 40.25 27.035156 C 43.226562 29.761719 48.886719 29.992188 48.886719 29.992188 Z M 48.886719 29.992188 " fill-opacity="1" fill-rule="nonzero"/><path fill="#ffffff" d="M 50.789062 31.570312 L 50.789062 25.167969 C 42.421875 24.8125 42.15625 17.210938 42.15625 16.496094 L 42.15625 16.445312 L 35.6875 16.445312 L 35.6875 41.371094 C 35.6875 41.726562 35.652344 42.082031 35.578125 42.429688 C 35.503906 42.78125 35.394531 43.121094 35.246094 43.445312 C 35.101562 43.773438 34.925781 44.082031 34.714844 44.371094 C 34.507812 44.660156 34.269531 44.925781 34.003906 45.164062 C 33.738281 45.40625 33.453125 45.613281 33.144531 45.792969 C 32.835938 45.972656 32.511719 46.121094 32.171875 46.230469 C 31.832031 46.34375 31.484375 46.417969 31.128906 46.457031 C 30.773438 46.496094 30.417969 46.5 30.0625 46.464844 C 29.707031 46.429688 29.359375 46.359375 29.019531 46.25 C 28.675781 46.140625 28.351562 46 28.039062 45.824219 C 27.730469 45.644531 27.441406 45.4375 27.171875 45.203125 C 26.90625 44.964844 26.664062 44.703125 26.453125 44.417969 C 26.238281 44.128906 26.058594 43.824219 25.910156 43.496094 C 25.761719 43.171875 25.648438 42.835938 25.570312 42.488281 C 25.492188 42.136719 25.453125 41.785156 25.445312 41.425781 C 25.441406 41.070312 25.476562 40.714844 25.546875 40.367188 C 25.617188 40.015625 25.722656 39.675781 25.863281 39.347656 C 26.003906 39.019531 26.175781 38.707031 26.382812 38.417969 C 26.589844 38.125 26.824219 37.855469 27.085938 37.613281 C 27.347656 37.371094 27.632812 37.15625 27.9375 36.972656 C 28.246094 36.789062 28.566406 36.640625 28.90625 36.523438 C 29.246094 36.410156 29.589844 36.328125 29.945312 36.285156 C 30.300781 36.242188 30.65625 36.234375 31.011719 36.265625 C 31.367188 36.296875 31.71875 36.367188 32.058594 36.46875 L 32.058594 29.867188 C 31.5625 29.804688 31.0625 29.773438 30.5625 29.777344 C 29.800781 29.777344 29.046875 29.851562 28.300781 30 C 27.550781 30.148438 26.828125 30.371094 26.125 30.660156 C 25.421875 30.953125 24.75 31.308594 24.117188 31.734375 C 23.484375 32.15625 22.898438 32.636719 22.363281 33.175781 C 21.824219 33.714844 21.34375 34.300781 20.917969 34.933594 C 20.496094 35.566406 20.140625 36.238281 19.847656 36.941406 C 19.558594 37.644531 19.335938 38.371094 19.1875 39.117188 C 19.039062 39.863281 18.964844 40.617188 18.96875 41.378906 C 18.96875 42.140625 19.042969 42.894531 19.191406 43.640625 C 19.339844 44.390625 19.558594 45.113281 19.851562 45.816406 C 20.144531 46.519531 20.5 47.1875 20.921875 47.824219 C 21.347656 48.457031 21.828125 49.042969 22.367188 49.578125 C 22.90625 50.117188 23.492188 50.597656 24.125 51.019531 C 24.757812 51.445312 25.425781 51.800781 26.128906 52.09375 C 26.835938 52.382812 27.558594 52.605469 28.304688 52.75 C 29.054688 52.898438 29.808594 52.972656 30.570312 52.972656 C 31.332031 52.972656 32.085938 52.898438 32.832031 52.75 C 33.578125 52.601562 34.304688 52.382812 35.007812 52.089844 C 35.710938 51.796875 36.378906 51.441406 37.011719 51.015625 C 37.644531 50.59375 38.230469 50.113281 38.769531 49.574219 C 39.308594 49.035156 39.789062 48.449219 40.210938 47.816406 C 40.632812 47.183594 40.992188 46.511719 41.28125 45.808594 C 41.574219 45.105469 41.792969 44.378906 41.941406 43.632812 C 42.089844 42.886719 42.164062 42.132812 42.164062 41.371094 C 42.164062 41.207031 42.164062 41.046875 42.152344 40.886719 L 42.152344 28.613281 C 45.128906 31.335938 50.789062 31.570312 50.789062 31.570312 Z M 50.789062 31.570312 " fill-opacity="1" fill-rule="nonzero"/><path fill="#ff004f" d="M 40.410156 16.445312 C 40.722656 18.140625 41.632812 20.796875 44.289062 22.347656 C 42.257812 19.984375 42.15625 16.9375 42.15625 16.496094 L 42.15625 16.445312 Z M 40.410156 16.445312 " fill-opacity="1" fill-rule="nonzero"/><path fill="#ff004f" d="M 50.789062 31.570312 L 50.789062 25.167969 C 50.148438 25.144531 49.511719 25.070312 48.882812 24.941406 L 48.882812 29.984375 C 48.882812 29.984375 43.222656 29.753906 40.25 27.027344 L 40.25 39.300781 C 40.253906 39.460938 40.257812 39.621094 40.257812 39.785156 C 40.257812 40.832031 40.121094 41.863281 39.839844 42.875 C 39.558594 43.886719 39.152344 44.839844 38.613281 45.742188 C 38.074219 46.640625 37.421875 47.453125 36.664062 48.179688 C 35.90625 48.902344 35.0625 49.511719 34.136719 50.007812 C 33.210938 50.503906 32.238281 50.867188 31.214844 51.097656 C 30.191406 51.328125 29.15625 51.417969 28.109375 51.367188 C 27.058594 51.320312 26.039062 51.128906 25.039062 50.804688 C 24.042969 50.476562 23.109375 50.019531 22.234375 49.441406 C 23.039062 50.269531 23.945312 50.964844 24.957031 51.523438 C 25.96875 52.082031 27.039062 52.480469 28.167969 52.71875 C 29.296875 52.957031 30.4375 53.027344 31.585938 52.925781 C 32.738281 52.824219 33.847656 52.554688 34.917969 52.121094 C 35.988281 51.6875 36.972656 51.109375 37.871094 50.382812 C 38.765625 49.65625 39.539062 48.8125 40.183594 47.855469 C 40.828125 46.898438 41.320312 45.867188 41.65625 44.761719 C 41.996094 43.65625 42.164062 42.527344 42.164062 41.371094 C 42.164062 41.207031 42.164062 41.046875 42.152344 40.886719 L 42.152344 28.613281 C 45.128906 31.335938 50.789062 31.570312 50.789062 31.570312 Z M 50.789062 31.570312 " fill-opacity="1" fill-rule="nonzero"/><path fill="#ff004f" d="M 30.15625 34.882812 C 29.847656 34.789062 29.535156 34.726562 29.21875 34.691406 C 28.902344 34.65625 28.582031 34.652344 28.261719 34.675781 C 27.945312 34.699219 27.628906 34.753906 27.320312 34.839844 C 27.011719 34.921875 26.714844 35.03125 26.425781 35.171875 C 26.140625 35.3125 25.867188 35.476562 25.609375 35.667969 C 25.351562 35.859375 25.117188 36.070312 24.898438 36.304688 C 24.679688 36.539062 24.488281 36.792969 24.316406 37.0625 C 24.148438 37.335938 24.003906 37.621094 23.886719 37.917969 C 23.773438 38.214844 23.683594 38.523438 23.625 38.835938 C 23.566406 39.152344 23.535156 39.46875 23.535156 39.789062 C 23.535156 40.109375 23.566406 40.425781 23.625 40.738281 C 23.683594 41.054688 23.773438 41.359375 23.890625 41.65625 C 24.007812 41.953125 24.152344 42.238281 24.320312 42.511719 C 24.492188 42.78125 24.683594 43.035156 24.902344 43.269531 C 25.121094 43.503906 25.355469 43.714844 25.613281 43.90625 C 25.871094 44.09375 26.144531 44.261719 26.433594 44.398438 C 26.113281 43.964844 25.871094 43.492188 25.703125 42.980469 C 25.535156 42.472656 25.445312 41.949219 25.441406 41.410156 C 25.4375 40.871094 25.519531 40.347656 25.679688 39.832031 C 25.839844 39.320312 26.078125 38.84375 26.386719 38.40625 C 26.699219 37.96875 27.070312 37.589844 27.5 37.265625 C 27.933594 36.945312 28.402344 36.695312 28.910156 36.523438 C 29.421875 36.347656 29.941406 36.257812 30.480469 36.25 C 31.019531 36.238281 31.542969 36.3125 32.058594 36.46875 L 32.058594 29.867188 C 31.5625 29.804688 31.0625 29.773438 30.5625 29.777344 C 30.425781 29.777344 30.289062 29.777344 30.152344 29.785156 Z M 30.15625 34.882812 " fill-opacity="1" fill-rule="nonzero"/></svg>