<svg xmlns="http://www.w3.org/2000/svg" xmlns:xlink="http://www.w3.org/1999/xlink" width="90" zoomAndPan="magnify" viewBox="0 0 67.5 67.499996" height="90" preserveAspectRatio="xMidYMid meet" version="1.0"><defs><filter x="0%" y="0%" width="100%" height="100%" id="c1bc07bd56"><feColorMatrix values="0 0 0 0 1 0 0 0 0 1 0 0 0 0 1 0 0 0 1 0" color-interpolation-filters="sRGB"/></filter><clipPath id="d1d2656597"><path d="M 0 0 L 67.003906 0 L 67.003906 67.003906 L 0 67.003906 Z M 0 0 " clip-rule="nonzero"/></clipPath><mask id="809103f014"><g filter="url(#c1bc07bd56)"><rect x="-6.75" width="81" fill="#000000" y="-6.75" height="80.999995" fill-opacity="0.098"/></g></mask><clipPath id="a8edcedd1b"><path d="M 0 0 L 67.003906 0 L 67.003906 67.003906 L 0 67.003906 Z M 0 0 " clip-rule="nonzero"/></clipPath><clipPath id="5fc4b5f4d8"><rect x="0" width="68" y="0" height="68"/></clipPath><clipPath id="7631cf595f"><path d="M 9.925781 9.925781 L 57.925781 9.925781 L 57.925781 57.925781 L 9.925781 57.925781 Z M 9.925781 9.925781 " clip-rule="nonzero"/></clipPath></defs><g clip-path="url(#d1d2656597)"><g mask="url(#809103f014)"><g transform="matrix(1, 0, 0, 1, 0, -0.000000000000002095)"><g clip-path="url(#5fc4b5f4d8)"><g clip-path="url(#a8edcedd1b)"><path fill="#00a4ef" d="M 10.195312 0 L 57.3125 0 C 60.117188 0 62.667969 1.148438 64.511719 2.992188 C 66.359375 4.839844 67.507812 7.390625 67.507812 10.195312 L 67.507812 57.3125 C 67.507812 60.117188 66.359375 62.667969 64.511719 64.511719 C 62.667969 66.359375 60.117188 67.507812 57.3125 67.507812 L 10.195312 67.507812 C 7.390625 67.507812 4.839844 66.359375 2.996094 64.511719 C 1.148438 62.667969 0 60.117188 0 57.3125 L 0 10.195312 C 0 7.390625 1.148438 4.839844 2.996094 2.992188 C 4.839844 1.148438 7.390625 0 10.195312 0 " fill-opacity="1" fill-rule="nonzero"/></g></g></g></g></g><g clip-path="url(#7631cf595f)"><path fill="#1b9df0" d="M 57.925781 33.925781 C 57.925781 34.710938 57.886719 35.496094 57.8125 36.277344 C 57.734375 37.0625 57.617188 37.835938 57.464844 38.609375 C 57.3125 39.378906 57.121094 40.140625 56.894531 40.894531 C 56.664062 41.644531 56.398438 42.382812 56.097656 43.109375 C 55.796875 43.835938 55.464844 44.546875 55.09375 45.238281 C 54.722656 45.933594 54.320312 46.605469 53.882812 47.261719 C 53.445312 47.914062 52.976562 48.542969 52.480469 49.152344 C 51.980469 49.757812 51.453125 50.339844 50.898438 50.898438 C 50.339844 51.453125 49.757812 51.980469 49.152344 52.480469 C 48.542969 52.976562 47.914062 53.445312 47.261719 53.882812 C 46.605469 54.320312 45.933594 54.722656 45.238281 55.09375 C 44.546875 55.464844 43.835938 55.796875 43.109375 56.097656 C 42.382812 56.398438 41.644531 56.664062 40.894531 56.894531 C 40.140625 57.121094 39.378906 57.3125 38.609375 57.464844 C 37.835938 57.617188 37.0625 57.734375 36.277344 57.8125 C 35.496094 57.886719 34.710938 57.925781 33.925781 57.925781 C 33.140625 57.925781 32.355469 57.886719 31.574219 57.8125 C 30.792969 57.734375 30.015625 57.617188 29.246094 57.464844 C 28.472656 57.3125 27.710938 57.121094 26.960938 56.894531 C 26.207031 56.664062 25.46875 56.398438 24.742188 56.097656 C 24.015625 55.796875 23.304688 55.464844 22.613281 55.09375 C 21.917969 54.722656 21.246094 54.320312 20.59375 53.882812 C 19.9375 53.445312 19.308594 52.976562 18.699219 52.480469 C 18.09375 51.980469 17.511719 51.453125 16.957031 50.898438 C 16.398438 50.339844 15.871094 49.757812 15.375 49.152344 C 14.875 48.542969 14.40625 47.914062 13.972656 47.261719 C 13.535156 46.605469 13.132812 45.933594 12.761719 45.238281 C 12.390625 44.546875 12.054688 43.835938 11.753906 43.109375 C 11.453125 42.382812 11.1875 41.644531 10.960938 40.894531 C 10.730469 40.140625 10.539062 39.378906 10.386719 38.609375 C 10.234375 37.835938 10.117188 37.0625 10.042969 36.277344 C 9.964844 35.496094 9.925781 34.710938 9.925781 33.925781 C 9.925781 33.140625 9.964844 32.355469 10.042969 31.574219 C 10.117188 30.792969 10.234375 30.015625 10.386719 29.246094 C 10.539062 28.472656 10.730469 27.710938 10.960938 26.960938 C 11.1875 26.207031 11.453125 25.46875 11.753906 24.742188 C 12.054688 24.015625 12.390625 23.304688 12.761719 22.613281 C 13.132812 21.917969 13.535156 21.246094 13.972656 20.59375 C 14.40625 19.9375 14.875 19.308594 15.375 18.699219 C 15.871094 18.09375 16.398438 17.511719 16.957031 16.957031 C 17.511719 16.398438 18.09375 15.871094 18.699219 15.375 C 19.308594 14.875 19.9375 14.40625 20.59375 13.972656 C 21.246094 13.535156 21.917969 13.132812 22.613281 12.761719 C 23.304688 12.390625 24.015625 12.054688 24.742188 11.753906 C 25.46875 11.453125 26.207031 11.1875 26.960938 10.960938 C 27.710938 10.730469 28.472656 10.539062 29.246094 10.386719 C 30.015625 10.234375 30.792969 10.117188 31.574219 10.042969 C 32.355469 9.964844 33.140625 9.925781 33.925781 9.925781 C 34.710938 9.925781 35.496094 9.964844 36.277344 10.042969 C 37.0625 10.117188 37.835938 10.234375 38.609375 10.386719 C 39.378906 10.539062 40.140625 10.730469 40.894531 10.960938 C 41.644531 11.1875 42.382812 11.453125 43.109375 11.753906 C 43.835938 12.054688 44.546875 12.390625 45.238281 12.761719 C 45.933594 13.132812 46.605469 13.535156 47.261719 13.972656 C 47.914062 14.40625 48.542969 14.875 49.152344 15.375 C 49.757812 15.871094 50.339844 16.398438 50.898438 16.957031 C 51.453125 17.511719 51.980469 18.09375 52.480469 18.699219 C 52.976562 19.308594 53.445312 19.9375 53.882812 20.59375 C 54.320312 21.246094 54.722656 21.917969 55.09375 22.613281 C 55.464844 23.304688 55.796875 24.015625 56.097656 24.742188 C 56.398438 25.46875 56.664062 26.207031 56.894531 26.960938 C 57.121094 27.710938 57.3125 28.472656 57.464844 29.246094 C 57.617188 30.015625 57.734375 30.792969 57.8125 31.574219 C 57.886719 32.355469 57.925781 33.140625 57.925781 33.925781 Z M 57.925781 33.925781 " fill-opacity="1" fill-rule="nonzero"/></g><path fill="#ffffff" d="M 29.535156 46.585938 C 40.179688 46.585938 46 37.765625 46 30.121094 C 46 29.871094 46 29.617188 45.988281 29.378906 C 47.113281 28.5625 48.097656 27.542969 48.878906 26.378906 C 47.847656 26.835938 46.730469 27.144531 45.554688 27.289062 C 46.753906 26.570312 47.667969 25.441406 48.097656 24.085938 C 46.984375 24.746094 45.746094 25.226562 44.425781 25.492188 C 43.371094 24.363281 41.871094 23.667969 40.203125 23.667969 C 37.011719 23.667969 34.417969 26.257812 34.417969 29.449219 C 34.417969 29.90625 34.464844 30.351562 34.574219 30.769531 C 29.761719 30.53125 25.503906 28.226562 22.644531 24.722656 C 22.15625 25.574219 21.867188 26.570312 21.867188 27.625 C 21.867188 29.628906 22.886719 31.40625 24.445312 32.4375 C 23.5 32.414062 22.609375 32.152344 21.832031 31.71875 C 21.832031 31.742188 21.832031 31.765625 21.832031 31.789062 C 21.832031 34.597656 23.824219 36.925781 26.472656 37.464844 C 25.996094 37.597656 25.476562 37.671875 24.949219 37.671875 C 24.578125 37.671875 24.21875 37.632812 23.859375 37.5625 C 24.589844 39.867188 26.726562 41.535156 29.257812 41.582031 C 27.277344 43.128906 24.78125 44.054688 22.070312 44.054688 C 21.601562 44.054688 21.144531 44.03125 20.691406 43.96875 C 23.222656 45.625 26.269531 46.585938 29.535156 46.585938 " fill-opacity="1" fill-rule="nonzero"/></svg>